<?xml version="1.0" encoding="UTF-8" standalone="no"?>
<svg
   id="Layer_1"
   viewBox="0 0 1080 1080"
   version="1.1"
   sodipodi:docname="profilbild_vorlage_rund.svg"
   inkscape:version="1.2.2 (b0a8486541, 2022-12-01, custom)"
   xmlns:inkscape="http://www.inkscape.org/namespaces/inkscape"
   xmlns:sodipodi="http://sodipodi.sourceforge.net/DTD/sodipodi-0.dtd"
   xmlns="http://www.w3.org/2000/svg"
   xmlns:svg="http://www.w3.org/2000/svg">
  <sodipodi:namedview
     id="namedview3774"
     pagecolor="#ffffff"
     bordercolor="#000000"
     borderopacity="0.25"
     inkscape:showpageshadow="2"
     inkscape:pageopacity="0.0"
     inkscape:pagecheckerboard="true"
     inkscape:deskcolor="#d1d1d1"
     showgrid="false"
     inkscape:zoom="0.532949"
     inkscape:cx="515.05866"
     inkscape:cy="548.833"
     inkscape:window-width="1850"
     inkscape:window-height="1016"
     inkscape:window-x="0"
     inkscape:window-y="0"
     inkscape:window-maximized="1"
     inkscape:current-layer="Layer_1" />
  <defs
     id="defs3169">
    <style
       id="style3167">.cls-1{fill:#1a1a1a;font-family:TimesNewRomanPSMT, 'Times New Roman';font-size:39.5px;}.cls-2{fill:#e72b71;}.cls-3{fill:none;stroke:#000;stroke-width:.3px;}</style>
  </defs>
  <path
     id="rect682"
     style="fill:#ffffff;fill-opacity:1"
     d="M -13.505859 -8.0078125 L -13.505859 1088.0078 L 1093.5059 1088.0078 L 1093.5059 -8.0078125 L -13.505859 -8.0078125 z M 536.9375 72.720703 L 543.0625 72.720703 C 801.9349 72.720703 1010.3418 281.1276 1010.3418 540 C 1010.3418 798.8724 801.9349 1007.2793 543.0625 1007.2793 L 536.9375 1007.2793 C 278.0651 1007.2793 69.658203 798.8724 69.658203 540 C 69.658203 281.1276 278.0651 72.720703 536.9375 72.720703 z " />
  <g
     id="g3769">
    <g
       id="g3763">
      <text
         class="cls-1"
         transform="translate(157.11 880.23) rotate(46.58)"
         id="text3173"><tspan
           x="0"
           y="0"
           id="tspan3171">w</tspan></text>
      <text
         class="cls-1"
         transform="translate(179.3 903.34) rotate(43.62)"
         id="text3177"><tspan
           x="0"
           y="0"
           id="tspan3175">ä</tspan></text>
      <text
         class="cls-1"
         transform="translate(194.5 917.75) rotate(41.16)"
         id="text3181"><tspan
           x="0"
           y="0"
           id="tspan3179">h</tspan></text>
      <text
         class="cls-1"
         transform="translate(211.98 932.85) rotate(39.07)"
         id="text3185"><tspan
           x="0"
           y="0"
           id="tspan3183">l</tspan></text>
      <text
         class="cls-1"
         transform="translate(223.07 941.79) rotate(37.48)"
         id="text3189"><tspan
           x="0"
           y="0"
           id="tspan3187">t</tspan></text>
      <text
         class="cls-1"
         transform="translate(234.37 950.4) rotate(35.95)"
         id="text3193"><tspan
           x="0"
           y="0"
           id="tspan3191" /></text>
      <text
         class="cls-1"
         transform="translate(245.06 958.18) rotate(33.92)"
         id="text3197"><tspan
           x="0"
           y="0"
           id="tspan3195">p</tspan></text>
      <text
         class="cls-1"
         transform="translate(264.32 970.98) rotate(31.69)"
         id="text3201"><tspan
           x="0"
           y="0"
           id="tspan3199">r</tspan></text>
      <text
         class="cls-1"
         transform="translate(278.39 979.66) rotate(29.46)"
         id="text3205"><tspan
           x="0"
           y="0"
           id="tspan3203">o</tspan></text>
      <text
         class="cls-1"
         transform="translate(298.62 991) rotate(26.85)"
         id="text3209"><tspan
           x="0"
           y="0"
           id="tspan3207">g</tspan></text>
      <text
         class="cls-1"
         transform="translate(319.31 1001.33) rotate(24.62)"
         id="text3213"><tspan
           x="0"
           y="0"
           id="tspan3211">r</tspan></text>
      <text
         class="cls-1"
         transform="translate(334.32 1008.18) rotate(22.5)"
         id="text3217"><tspan
           x="0"
           y="0"
           id="tspan3215">e</tspan></text>
      <text
         class="cls-1"
         transform="translate(353.67 1016.1) rotate(20.26)"
         id="text3221"><tspan
           x="0"
           y="0"
           id="tspan3219">s</tspan></text>
      <text
         class="cls-1"
         transform="translate(371.26 1022.53) rotate(18.14)"
         id="text3225"><tspan
           x="0"
           y="0"
           id="tspan3223">s</tspan></text>
      <text
         class="cls-1"
         transform="translate(389.05 1028.27) rotate(16.27)"
         id="text3229"><tspan
           x="0"
           y="0"
           id="tspan3227">i</tspan></text>
      <text
         class="cls-1"
         transform="translate(402.81 1032.3) rotate(14.16)"
         id="text3233"><tspan
           x="0"
           y="0"
           id="tspan3231">v</tspan></text>
      <text
         class="cls-1"
         transform="translate(425.32 1037.9) rotate(11.53)"
         id="text3237"><tspan
           x="0"
           y="0"
           id="tspan3235">*</tspan></text>
      <text
         class="cls-1"
         transform="translate(447.96 1042.37) rotate(9.49)"
         id="text3241"><tspan
           x="0"
           y="0"
           id="tspan3239" /></text>
      <text
         class="cls-1"
         transform="translate(460.9 1044.49) rotate(7.95)"
         id="text3245"><tspan
           x="0"
           y="0"
           id="tspan3243">i</tspan></text>
      <text
         class="cls-1"
         transform="translate(475.1 1046.49) rotate(5.85)"
         id="text3249"><tspan
           x="0"
           y="0"
           id="tspan3247">n</tspan></text>
      <text
         class="cls-1"
         transform="translate(498.17 1048.78) rotate(3.26)"
         id="text3253"><tspan
           x="0"
           y="0"
           id="tspan3251">k</tspan></text>
      <text
         class="cls-1"
         transform="translate(521.23 1049.95) rotate(1.19)"
         id="text3257"><tspan
           x="0"
           y="0"
           id="tspan3255">l</tspan></text>
      <text
         class="cls-1"
         transform="translate(535.55 1050.28) rotate(-.93)"
         id="text3261"><tspan
           x="0"
           y="0"
           id="tspan3259">u</tspan></text>
      <text
         class="cls-1"
         transform="translate(558.59 1049.81) rotate(-3.17)"
         id="text3265"><tspan
           x="0"
           y="0"
           id="tspan3263">s</tspan></text>
      <text
         class="cls-1"
         transform="translate(577.24 1048.69) rotate(-5.01)"
         id="text3269"><tspan
           x="0"
           y="0"
           id="tspan3267">i</tspan></text>
      <text
         class="cls-1"
         transform="translate(591.53 1047.46) rotate(-7.11)"
         id="text3273"><tspan
           x="0"
           y="0"
           id="tspan3271">v</tspan></text>
      <text
         class="cls-1"
         transform="translate(614.51 1044.51) rotate(-9.71)"
         id="text3277"><tspan
           x="0"
           y="0"
           id="tspan3275">*</tspan></text>
      <text
         class="cls-1"
         transform="translate(637.25 1040.47) rotate(-11.76)"
         id="text3281"><tspan
           x="0"
           y="0"
           id="tspan3279" /></text>
      <text
         class="cls-1"
         transform="translate(650.21 1037.8) rotate(-13.81)"
         id="text3285"><tspan
           x="0"
           y="0"
           id="tspan3283">n</tspan></text>
      <text
         class="cls-1"
         transform="translate(672.69 1032.18) rotate(-16.31)"
         id="text3289"><tspan
           x="0"
           y="0"
           id="tspan3287">a</tspan></text>
      <text
         class="cls-1"
         transform="translate(692.77 1026.23) rotate(-18.68)"
         id="text3293"><tspan
           x="0"
           y="0"
           id="tspan3291">c</tspan></text>
      <text
         class="cls-1"
         transform="translate(712.61 1019.46) rotate(-21.18)"
         id="text3297"><tspan
           x="0"
           y="0"
           id="tspan3295">h</tspan></text>
      <text
         class="cls-1"
         transform="translate(734.2 1011.01) rotate(-23.8)"
         id="text3301"><tspan
           x="0"
           y="0"
           id="tspan3299">h</tspan></text>
      <text
         class="cls-1"
         transform="translate(755.37 1001.57) rotate(-26.29)"
         id="text3305"><tspan
           x="0"
           y="0"
           id="tspan3303">a</tspan></text>
      <text
         class="cls-1"
         transform="translate(774.03 992.22) rotate(-28.27)"
         id="text3309"><tspan
           x="0"
           y="0"
           id="tspan3307">l</tspan></text>
      <text
         class="cls-1"
         transform="translate(786.53 985.45) rotate(-29.87)"
         id="text3313"><tspan
           x="0"
           y="0"
           id="tspan3311">t</tspan></text>
      <text
         class="cls-1"
         transform="translate(798.85 978.32) rotate(-31.47)"
         id="text3317"><tspan
           x="0"
           y="0"
           id="tspan3315">i</tspan></text>
      <text
         class="cls-1"
         transform="translate(811.08 970.86) rotate(-33.57)"
         id="text3321"><tspan
           x="0"
           y="0"
           id="tspan3319">g</tspan></text>
      <text
         class="cls-1"
         transform="translate(830.36 957.97) rotate(-36.17)"
         id="text3325"><tspan
           x="0"
           y="0"
           id="tspan3323">*</tspan></text>
      <text
         class="cls-1"
         transform="translate(848.91 944.22) rotate(-38.2)"
         id="text3329"><tspan
           x="0"
           y="0"
           id="tspan3327" /></text>
      <text
         class="cls-1"
         transform="translate(859.31 936.07) rotate(-40.23)"
         id="text3333"><tspan
           x="0"
           y="0"
           id="tspan3331">k</tspan></text>
      <text
         class="cls-1"
         transform="translate(876.85 921.05) rotate(-42.32)"
         id="text3337"><tspan
           x="0"
           y="0"
           id="tspan3335">l</tspan></text>
      <text
         class="cls-1"
         transform="translate(887.36 911.42) rotate(-43.91)"
         id="text3341"><tspan
           x="0"
           y="0"
           id="tspan3339">i</tspan></text>
      <text
         class="cls-1"
         transform="translate(897.86 901.53) rotate(-46.62)"
         id="text3345"><tspan
           x="0"
           y="0"
           id="tspan3343">m</tspan></text>
      <text
         class="cls-1"
         transform="translate(921.2 876.43) rotate(-49.71)"
         id="text3349"><tspan
           x="0"
           y="0"
           id="tspan3347">a</tspan></text>
      <text
         class="cls-1"
         transform="translate(934.7 860.43) rotate(-52.17)"
         id="text3353"><tspan
           x="0"
           y="0"
           id="tspan3351">g</tspan></text>
      <text
         class="cls-1"
         transform="translate(948.84 842.07) rotate(-54.64)"
         id="text3357"><tspan
           x="0"
           y="0"
           id="tspan3355">e</tspan></text>
      <text
         class="cls-1"
         transform="translate(960.83 824.99) rotate(-56.73)"
         id="text3361"><tspan
           x="0"
           y="0"
           id="tspan3359">r</tspan></text>
      <text
         class="cls-1"
         transform="translate(969.87 811.18) rotate(-58.83)"
         id="text3365"><tspan
           x="0"
           y="0"
           id="tspan3363">e</tspan></text>
      <text
         class="cls-1"
         transform="translate(980.65 793.22) rotate(-61.18)"
         id="text3369"><tspan
           x="0"
           y="0"
           id="tspan3367">c</tspan></text>
      <text
         class="cls-1"
         transform="translate(990.71 774.83) rotate(-63.67)"
         id="text3373"><tspan
           x="0"
           y="0"
           id="tspan3371">h</tspan></text>
      <text
         class="cls-1"
         transform="translate(1000.82 754.07) rotate(-65.78)"
         id="text3377"><tspan
           x="0"
           y="0"
           id="tspan3375">t</tspan></text>
      <text
         class="cls-1"
         transform="translate(1006.72 741) rotate(-67.9)"
         id="text3381"><tspan
           x="0"
           y="0"
           id="tspan3379">*</tspan></text>
      <text
         class="cls-1"
         transform="translate(1015.27 719.55) rotate(-69.95)"
         id="text3385"><tspan
           x="0"
           y="0"
           id="tspan3383" /></text>
      <text
         class="cls-1"
         transform="translate(1019.75 707.21) rotate(-71.62)"
         id="text3389"><tspan
           x="0"
           y="0"
           id="tspan3387">f</tspan></text>
      <text
         class="cls-1"
         transform="translate(1024.94 691.54) rotate(-73.74)"
         id="text3393"><tspan
           x="0"
           y="0"
           id="tspan3391">e</tspan></text>
      <text
         class="cls-1"
         transform="translate(1030.92 671.32) rotate(-76.87)"
         id="text3397"><tspan
           x="0"
           y="0"
           id="tspan3395">m</tspan></text>
      <text
         class="cls-1"
         transform="translate(1038.38 637.93) rotate(-79.62)"
         id="text3401"><tspan
           x="0"
           y="0"
           id="tspan3399">i</tspan></text>
      <text
         class="cls-1"
         transform="translate(1040.98 623.84) rotate(-81.73)"
         id="text3405"><tspan
           x="0"
           y="0"
           id="tspan3403">n</tspan></text>
      <text
         class="cls-1"
         transform="translate(1044.16 600.97) rotate(-83.83)"
         id="text3409"><tspan
           x="0"
           y="0"
           id="tspan3407">i</tspan></text>
      <text
         class="cls-1"
         transform="translate(1045.68 586.78) rotate(-85.67)"
         id="text3413"><tspan
           x="0"
           y="0"
           id="tspan3411">s</tspan></text>
      <text
         class="cls-1"
         transform="translate(1047 568.15) rotate(-87.5)"
         id="text3417"><tspan
           x="0"
           y="0"
           id="tspan3415">t</tspan></text>
      <text
         class="cls-1"
         transform="translate(1047.58 553.96) rotate(-89.07)"
         id="text3421"><tspan
           x="0"
           y="0"
           id="tspan3419">i</tspan></text>
      <text
         class="cls-1"
         transform="translate(1047.8 539.68) rotate(-90.93)"
         id="text3425"><tspan
           x="0"
           y="0"
           id="tspan3423">s</tspan></text>
      <text
         class="cls-1"
         transform="translate(1047.46 520.96) rotate(-93.07)"
         id="text3429"><tspan
           x="0"
           y="0"
           id="tspan3427">c</tspan></text>
      <text
         class="cls-1"
         transform="translate(1046.29 500.06) rotate(-95.53)"
         id="text3433"><tspan
           x="0"
           y="0"
           id="tspan3431">h</tspan></text>
      <text
         class="cls-1"
         transform="translate(1043.98 476.97) rotate(-98.13)"
         id="text3437"><tspan
           x="0"
           y="0"
           id="tspan3435">*</tspan></text>
      <text
         class="cls-1"
         transform="translate(1040.57 454.14) rotate(-100.17)"
         id="text3441"><tspan
           x="0"
           y="0"
           id="tspan3439" /></text>
      <text
         class="cls-1"
         transform="translate(1038.26 441.11) rotate(-102.22)"
         id="text3445"><tspan
           x="0"
           y="0"
           id="tspan3443">d</tspan></text>
      <text
         class="cls-1"
         transform="translate(1033.23 418.57) rotate(-104.34)"
         id="text3449"><tspan
           x="0"
           y="0"
           id="tspan3447">i</tspan></text>
      <text
         class="cls-1"
         transform="translate(1029.7 404.68) rotate(-106.46)"
         id="text3453"><tspan
           x="0"
           y="0"
           id="tspan3451">v</tspan></text>
      <text
         class="cls-1"
         transform="translate(1023.04 382.48) rotate(-108.96)"
         id="text3457"><tspan
           x="0"
           y="0"
           id="tspan3455">e</tspan></text>
      <text
         class="cls-1"
         transform="translate(1016.16 362.76) rotate(-111.07)"
         id="text3461"><tspan
           x="0"
           y="0"
           id="tspan3459">r</tspan></text>
      <text
         class="cls-1"
         transform="translate(1010.19 347.39) rotate(-113.06)"
         id="text3465"><tspan
           x="0"
           y="0"
           id="tspan3463">s</tspan></text>
      <text
         class="cls-1"
         transform="translate(1002.82 330.14) rotate(-115.43)"
         id="text3469"><tspan
           x="0"
           y="0"
           id="tspan3467">*</tspan></text>
      <text
         class="cls-1"
         transform="translate(992.77 309.34) rotate(-117.47)"
         id="text3473"><tspan
           x="0"
           y="0"
           id="tspan3471" /></text>
      <text
         class="cls-1"
         transform="translate(986.69 297.67) rotate(-119.27)"
         id="text3477"><tspan
           x="0"
           y="0"
           id="tspan3475">s</tspan></text>
      <text
         class="cls-1"
         transform="translate(977.49 281.31) rotate(-121.62)"
         id="text3481"><tspan
           x="0"
           y="0"
           id="tspan3479">o</tspan></text>
      <text
         class="cls-1"
         transform="translate(965.26 261.72) rotate(-123.72)"
         id="text3485"><tspan
           x="0"
           y="0"
           id="tspan3483">l</tspan></text>
      <text
         class="cls-1"
         transform="translate(957.32 249.89) rotate(-125.32)"
         id="text3489"><tspan
           x="0"
           y="0"
           id="tspan3487">i</tspan></text>
      <text
         class="cls-1"
         transform="translate(949.06 238.21) rotate(-127.41)"
         id="text3493"><tspan
           x="0"
           y="0"
           id="tspan3491">d</tspan></text>
      <text
         class="cls-1"
         transform="translate(934.9 219.85) rotate(-129.87)"
         id="text3497"><tspan
           x="0"
           y="0"
           id="tspan3495">a</tspan></text>
      <text
         class="cls-1"
         transform="translate(921.43 203.88) rotate(-131.96)"
         id="text3501"><tspan
           x="0"
           y="0"
           id="tspan3499">r</tspan></text>
      <text
         class="cls-1"
         transform="translate(910.4 191.72) rotate(-133.67)"
         id="text3505"><tspan
           x="0"
           y="0"
           id="tspan3503">i</tspan></text>
      <text
         class="cls-1"
         transform="translate(900.53 181.4) rotate(-135.51)"
         id="text3509"><tspan
           x="0"
           y="0"
           id="tspan3507">s</tspan></text>
      <text
         class="cls-1"
         transform="translate(887.13 168.3) rotate(-137.72)"
         id="text3513"><tspan
           x="0"
           y="0"
           id="tspan3511">c</tspan></text>
      <text
         class="cls-1"
         transform="translate(871.59 154.24) rotate(-140.19)"
         id="text3517"><tspan
           x="0"
           y="0"
           id="tspan3515">h</tspan></text>
      <text
         class="cls-1"
         transform="translate(853.72 139.45) rotate(-142.78)"
         id="text3521"><tspan
           x="0"
           y="0"
           id="tspan3519">*</tspan></text>
      <text
         class="cls-1"
         transform="translate(835.26 125.6) rotate(-144.81)"
         id="text3525"><tspan
           x="0"
           y="0"
           id="tspan3523" /></text>
      <text
         class="cls-1"
         transform="translate(824.46 117.96) rotate(-146.85)"
         id="text3529"><tspan
           x="0"
           y="0"
           id="tspan3527">v</tspan></text>
      <text
         class="cls-1"
         transform="translate(805.05 105.44) rotate(-148.95)"
         id="text3533"><tspan
           x="0"
           y="0"
           id="tspan3531">i</tspan></text>
      <text
         class="cls-1"
         transform="translate(792.8 98.07) rotate(-150.92)"
         id="text3537"><tspan
           x="0"
           y="0"
           id="tspan3535">e</tspan></text>
      <text
         class="cls-1"
         transform="translate(774.52 88.04) rotate(-152.9)"
         id="text3541"><tspan
           x="0"
           y="0"
           id="tspan3539">l</tspan></text>
      <text
         class="cls-1"
         transform="translate(761.82 81.57) rotate(-154.63)"
         id="text3545"><tspan
           x="0"
           y="0"
           id="tspan3543">f</tspan></text>
      <text
         class="cls-1"
         transform="translate(746.87 74.51) rotate(-156.74)"
         id="text3549"><tspan
           x="0"
           y="0"
           id="tspan3547">ä</tspan></text>
      <text
         class="cls-1"
         transform="translate(727.68 66.39) rotate(-158.73)"
         id="text3553"><tspan
           x="0"
           y="0"
           id="tspan3551">l</tspan></text>
      <text
         class="cls-1"
         transform="translate(714.38 61.26) rotate(-160.34)"
         id="text3557"><tspan
           x="0"
           y="0"
           id="tspan3555">t</tspan></text>
      <text
         class="cls-1"
         transform="translate(700.97 56.52) rotate(-161.95)"
         id="text3561"><tspan
           x="0"
           y="0"
           id="tspan3559">i</tspan></text>
      <text
         class="cls-1"
         transform="translate(687.34 52.06) rotate(-164.07)"
         id="text3565"><tspan
           x="0"
           y="0"
           id="tspan3563">g</tspan></text>
      <text
         class="cls-1"
         transform="translate(665.02 45.77) rotate(-166.7)"
         id="text3569"><tspan
           x="0"
           y="0"
           id="tspan3567">*</tspan></text>
      <text
         class="cls-1"
         transform="translate(642.5 40.6) rotate(-168.75)"
         id="text3573"><tspan
           x="0"
           y="0"
           id="tspan3571" /></text>
      <text
         class="cls-1"
         transform="translate(629.57 38.02) rotate(-170.67)"
         id="text3577"><tspan
           x="0"
           y="0"
           id="tspan3575">a</tspan></text>
      <text
         class="cls-1"
         transform="translate(608.88 34.67) rotate(-173.15)"
         id="text3581"><tspan
           x="0"
           y="0"
           id="tspan3579">n</tspan></text>
      <text
         class="cls-1"
         transform="translate(585.93 32.05) rotate(-175.24)"
         id="text3585"><tspan
           x="0"
           y="0"
           id="tspan3583">t</tspan></text>
      <text
         class="cls-1"
         transform="translate(571.74 30.92) rotate(-176.83)"
         id="text3589"><tspan
           x="0"
           y="0"
           id="tspan3587">i</tspan></text>
      <text
         class="cls-1"
         transform="translate(557.51 30.16) rotate(-178.53)"
         id="text3593"><tspan
           x="0"
           y="0"
           id="tspan3591">r</tspan></text>
      <text
         class="cls-1"
         transform="translate(541.06 29.7) rotate(179.07)"
         id="text3597"><tspan
           x="0"
           y="0"
           id="tspan3595">a</tspan></text>
      <text
         class="cls-1"
         transform="translate(520.22 30.05) rotate(177.24)"
         id="text3601"><tspan
           x="0"
           y="0"
           id="tspan3599">s</tspan></text>
      <text
         class="cls-1"
         transform="translate(501.52 31.01) rotate(175.15)"
         id="text3605"><tspan
           x="0"
           y="0"
           id="tspan3603">s</tspan></text>
      <text
         class="cls-1"
         transform="translate(482.93 32.68) rotate(173.31)"
         id="text3609"><tspan
           x="0"
           y="0"
           id="tspan3607">i</tspan></text>
      <text
         class="cls-1"
         transform="translate(468.76 34.36) rotate(171.46)"
         id="text3613"><tspan
           x="0"
           y="0"
           id="tspan3611">s</tspan></text>
      <text
         class="cls-1"
         transform="translate(450.3 37.22) rotate(169.61)"
         id="text3617"><tspan
           x="0"
           y="0"
           id="tspan3615">t</tspan></text>
      <text
         class="cls-1"
         transform="translate(436.3 39.83) rotate(168)"
         id="text3621"><tspan
           x="0"
           y="0"
           id="tspan3619">i</tspan></text>
      <text
         class="cls-1"
         transform="translate(422.34 42.82) rotate(166.14)"
         id="text3625"><tspan
           x="0"
           y="0"
           id="tspan3623">s</tspan></text>
      <text
         class="cls-1"
         transform="translate(404.13 47.36) rotate(163.89)"
         id="text3629"><tspan
           x="0"
           y="0"
           id="tspan3627">c</tspan></text>
      <text
         class="cls-1"
         transform="translate(384.02 53.22) rotate(161.39)"
         id="text3633"><tspan
           x="0"
           y="0"
           id="tspan3631">h</tspan></text>
      <text
         class="cls-1"
         transform="translate(362.05 60.7) rotate(158.77)"
         id="text3637"><tspan
           x="0"
           y="0"
           id="tspan3635">*</tspan></text>
      <text
         class="cls-1"
         transform="translate(340.59 69.2) rotate(156.71)"
         id="text3641"><tspan
           x="0"
           y="0"
           id="tspan3639" /></text>
      <text
         class="cls-1"
         transform="translate(328.46 74.41) rotate(154.79)"
         id="text3645"><tspan
           x="0"
           y="0"
           id="tspan3643">a</tspan></text>
      <text
         class="cls-1"
         transform="translate(309.53 83.38) rotate(152.3)"
         id="text3649"><tspan
           x="0"
           y="0"
           id="tspan3647">n</tspan></text>
      <text
         class="cls-1"
         transform="translate(289.13 94.25) rotate(150.2)"
         id="text3653"><tspan
           x="0"
           y="0"
           id="tspan3651">t</tspan></text>
      <text
         class="cls-1"
         transform="translate(276.8 101.36) rotate(148.6)"
         id="text3657"><tspan
           x="0"
           y="0"
           id="tspan3655">i</tspan></text>
      <text
         class="cls-1"
         transform="translate(264.58 108.8) rotate(146.5)"
         id="text3661"><tspan
           x="0"
           y="0"
           id="tspan3659">k</tspan></text>
      <text
         class="cls-1"
         transform="translate(245.31 121.67) rotate(144.03)"
         id="text3665"><tspan
           x="0"
           y="0"
           id="tspan3663">a</tspan></text>
      <text
         class="cls-1"
         transform="translate(228.38 134.02) rotate(141.56)"
         id="text3669"><tspan
           x="0"
           y="0"
           id="tspan3667">p</tspan></text>
      <text
         class="cls-1"
         transform="translate(210.37 148.49) rotate(139.47)"
         id="text3673"><tspan
           x="0"
           y="0"
           id="tspan3671">i</tspan></text>
      <text
         class="cls-1"
         transform="translate(199.59 157.77) rotate(137.88)"
         id="text3677"><tspan
           x="0"
           y="0"
           id="tspan3675">t</tspan></text>
      <text
         class="cls-1"
         transform="translate(188.98 167.36) rotate(135.92)"
         id="text3681"><tspan
           x="0"
           y="0"
           id="tspan3679">a</tspan></text>
      <text
         class="cls-1"
         transform="translate(174.08 181.95) rotate(133.96)"
         id="text3685"><tspan
           x="0"
           y="0"
           id="tspan3683">l</tspan></text>
      <text
         class="cls-1"
         transform="translate(164.23 192.22) rotate(132.37)"
         id="text3689"><tspan
           x="0"
           y="0"
           id="tspan3687">i</tspan></text>
      <text
         class="cls-1"
         transform="translate(154.62 202.79) rotate(130.53)"
         id="text3693"><tspan
           x="0"
           y="0"
           id="tspan3691">s</tspan></text>
      <text
         class="cls-1"
         transform="translate(142.56 217.03) rotate(128.69)"
         id="text3697"><tspan
           x="0"
           y="0"
           id="tspan3695">t</tspan></text>
      <text
         class="cls-1"
         transform="translate(133.7 228.16) rotate(127.1)"
         id="text3701"><tspan
           x="0"
           y="0"
           id="tspan3699">i</tspan></text>
      <text
         class="cls-1"
         transform="translate(125.1 239.57) rotate(125.26)"
         id="text3705"><tspan
           x="0"
           y="0"
           id="tspan3703">s</tspan></text>
      <text
         class="cls-1"
         transform="translate(114.32 254.89) rotate(123.04)"
         id="text3709"><tspan
           x="0"
           y="0"
           id="tspan3707">c</tspan></text>
      <text
         class="cls-1"
         transform="translate(102.94 272.49) rotate(120.56)"
         id="text3713"><tspan
           x="0"
           y="0"
           id="tspan3711">h</tspan></text>
      <text
         class="cls-1"
         transform="translate(91.2 292.52) rotate(117.95)"
         id="text3717"><tspan
           x="0"
           y="0"
           id="tspan3715">*</tspan></text>
      <text
         class="cls-1"
         transform="translate(80.51 312.99) rotate(115.9)"
         id="text3721"><tspan
           x="0"
           y="0"
           id="tspan3719" /></text>
      <text
         class="cls-1"
         transform="translate(74.71 324.86) rotate(113.85)"
         id="text3725"><tspan
           x="0"
           y="0"
           id="tspan3723">d</tspan></text>
      <text
         class="cls-1"
         transform="translate(65.4 346.1) rotate(111.23)"
         id="text3729"><tspan
           x="0"
           y="0"
           id="tspan3727">y</tspan></text>
      <text
         class="cls-1"
         transform="translate(57.08 367.75) rotate(108.61)"
         id="text3733"><tspan
           x="0"
           y="0"
           id="tspan3731">n</tspan></text>
      <text
         class="cls-1"
         transform="translate(49.77 389.75) rotate(106.11)"
         id="text3737"><tspan
           x="0"
           y="0"
           id="tspan3735">a</tspan></text>
      <text
         class="cls-1"
         transform="translate(43.84 409.99) rotate(102.98)"
         id="text3741"><tspan
           x="0"
           y="0"
           id="tspan3739">m</tspan></text>
      <text
         class="cls-1"
         transform="translate(36.48 443.37) rotate(100.23)"
         id="text3745"><tspan
           x="0"
           y="0"
           id="tspan3743">i</tspan></text>
      <text
         class="cls-1"
         transform="translate(33.96 457.43) rotate(98.37)"
         id="text3749"><tspan
           x="0"
           y="0"
           id="tspan3747">s</tspan></text>
      <text
         class="cls-1"
         transform="translate(31.27 475.99) rotate(96.15)"
         id="text3753"><tspan
           x="0"
           y="0"
           id="tspan3751">c</tspan></text>
      <text
         class="cls-1"
         transform="translate(29.08 496.81) rotate(93.69)"
         id="text3757"><tspan
           x="0"
           y="0"
           id="tspan3755">h</tspan></text>
      <text
         class="cls-1"
         transform="translate(27.67 519.93) rotate(91.12)"
         id="text3761"><tspan
           x="0"
           y="0"
           id="tspan3759">*</tspan></text>
    </g>
    <line
       class="cls-3"
       x1="1113.85"
       y1="17.71"
       x2="1077.85"
       y2="17.71"
       id="line3765" />
    <line
       class="cls-3"
       x1="1113.85"
       y1="1062.29"
       x2="1077.85"
       y2="1062.29"
       id="line3767" />
  </g>
  <path
     class="cls-2"
     d="m107.28,701.91c2.5,1.21,4.37-1.79,3.11-3.44l-22.48-29.23c-4-5.55-4.85-10.38-4.32-14.45,1.14-8.72,10.36-13.72,19.66-12.5,10.75,1.4,13.65,8.58,14.36,19.01l1.02,32.93c.14,1.2,1.22,1.93,2.1,2.05s1.49-.1,2.22-1.19l29.97-37.16c5.27-6.4,10.01-8.74,14.98-8.39,6.72.58,14.39,7.49,13.36,15.34-.53,4.07-3.93,7.47-9.73,11.14l-45.35,25.99c-.66.51-1.02,1.05-1.1,1.63-.15,1.16.32,2.11,1.77,2.3l46.8,14.98c9.9,3.36,13.1,10.57,12.19,17.55-1.33,10.17-9.79,16.16-19.67,14.87-5.81-.76-9.81-6.31-17.19-13.18l-25.8-26.42c-1.3-1.35-3.63-1.66-4.3,1.21l-6.71,44.63c-2.28,10.64-7.3,19.73-17.76,18.36s-15.56-12.08-9.8-22.26l26.44-44.12c1.18-2.21-.38-3.89-2.49-3.57l-41.88,8.42c-11.79,2.01-18.04-4.42-16.63-15.17,1.71-13.07,12.02-17.34,27.14-10.94l30.1,11.61Z"
     id="path3771" />
</svg>
