<?xml version="1.0" encoding="UTF-8" standalone="no"?>
<svg
   id="Layer_1"
   viewBox="0 0 1080 1080"
   version="1.1"
   sodipodi:docname="profilbild_vorlage_quadratisch.svg"
   inkscape:version="1.2.2 (b0a8486541, 2022-12-01, custom)"
   xmlns:inkscape="http://www.inkscape.org/namespaces/inkscape"
   xmlns:sodipodi="http://sodipodi.sourceforge.net/DTD/sodipodi-0.dtd"
   xmlns="http://www.w3.org/2000/svg"
   xmlns:svg="http://www.w3.org/2000/svg">
  <sodipodi:namedview
     id="namedview401"
     pagecolor="#ffffff"
     bordercolor="#000000"
     borderopacity="0.25"
     inkscape:showpageshadow="2"
     inkscape:pageopacity="0"
     inkscape:pagecheckerboard="true"
     inkscape:deskcolor="#d1d1d1"
     showgrid="false"
     inkscape:zoom="0.7537037"
     inkscape:cx="585.11057"
     inkscape:cy="540.66339"
     inkscape:window-width="1850"
     inkscape:window-height="1016"
     inkscape:window-x="0"
     inkscape:window-y="0"
     inkscape:window-maximized="1"
     inkscape:current-layer="layer2" />
  <defs
     id="defs20">
    <style
       id="style18">.cls-1{fill:#e72b71;}.cls-2{fill:#1a1a1a;font-family:TimesNewRomanPSMT, 'Times New Roman';font-size:46px;}</style>
  </defs>
  <g
     inkscape:groupmode="layer"
     id="layer2"
     inkscape:label="BG">
    <path
       id="rect682"
       style="fill:#ffffff;fill-opacity:1"
       d="M -9.2929688 -6.0898438 L -9.2929688 1089.9258 L 1097.7207 1089.9258 L 1097.7207 -6.0898438 L -9.2929688 -6.0898438 z M 237.67383 105.34766 L 842.32617 105.34766 C 917.21351 105.34766 977.50195 165.6361 977.50195 240.52344 L 977.50195 839.47656 C 977.50195 914.3639 917.21351 974.65234 842.32617 974.65234 L 237.67383 974.65234 C 162.78649 974.65234 102.49805 914.3639 102.49805 839.47656 L 102.49805 240.52344 C 102.49805 165.6361 162.78649 105.34766 237.67383 105.34766 z " />
  </g>
  <g
     inkscape:groupmode="layer"
     id="layer1"
     inkscape:label="layer1">
    <text
       class="cls-2"
       transform="translate(228.23,1023.85)"
       id="text78"><tspan
         x="0"
         y="0"
         id="tspan22">w</tspan><tspan
         x="36.69"
         y="0"
         id="tspan24">ä</tspan><tspan
         x="60.56"
         y="0"
         id="tspan26">h</tspan><tspan
         x="87"
         y="0"
         id="tspan28">l</tspan><tspan
         x="103.23"
         y="0"
         id="tspan30">t</tspan><tspan
         x="119.47"
         y="0"
         id="tspan32" /><tspan
         x="134.41"
         y="0"
         id="tspan34">p</tspan><tspan
         x="160.86"
         y="0"
         id="tspan36">r</tspan><tspan
         x="179.64"
         y="0"
         id="tspan38">o</tspan><tspan
         x="206.09"
         y="0"
         id="tspan40">g</tspan><tspan
         x="232.54"
         y="0"
         id="tspan42">r</tspan><tspan
         x="251.32"
         y="0"
         id="tspan44">e</tspan><tspan
         x="275.18"
         y="0"
         id="tspan46">s</tspan><tspan
         x="296.54"
         y="0"
         id="tspan48">s</tspan><tspan
         x="317.9"
         y="0"
         id="tspan50">i</tspan><tspan
         x="334.13"
         y="0"
         id="tspan52">v</tspan><tspan
         x="360.56"
         y="0"
         id="tspan54">*</tspan><tspan
         x="387.03"
         y="0"
         id="tspan56" /><tspan
         x="401.98"
         y="0"
         id="tspan58">i</tspan><tspan
         x="418.21"
         y="0"
         id="tspan60">n</tspan><tspan
         x="444.67"
         y="0"
         id="tspan62">k</tspan><tspan
         x="471.13"
         y="0"
         id="tspan64">l</tspan><tspan
         x="487.35"
         y="0"
         id="tspan66">u</tspan><tspan
         x="513.79"
         y="0"
         id="tspan68">s</tspan><tspan
         x="535.14"
         y="0"
         id="tspan70">i</tspan><tspan
         x="551.39"
         y="0"
         id="tspan72">v</tspan><tspan
         x="577.83"
         y="0"
         id="tspan74">*</tspan><tspan
         x="604.3"
         y="0"
         id="tspan76" /></text>
    <text
       class="cls-2"
       transform="rotate(-5.6,10894.42,-8171.4654)"
       id="text82"><tspan
         x="0"
         y="0"
         id="tspan80">n</tspan></text>
    <text
       class="cls-2"
       transform="rotate(-14.71,4392.804,-2893.5471)"
       id="text86"><tspan
         x="0"
         y="0"
         id="tspan84">a</tspan></text>
    <text
       class="cls-2"
       transform="rotate(-23.39,2899.9575,-1678.1952)"
       id="text90"><tspan
         x="0"
         y="0"
         id="tspan88">c</tspan></text>
    <text
       class="cls-2"
       transform="rotate(-32.49,2184.4006,-1093.226)"
       id="text94"><tspan
         x="0"
         y="0"
         id="tspan92">h</tspan></text>
    <text
       class="cls-2"
       transform="rotate(-42,1761.0095,-749.54815)"
       id="text98"><tspan
         x="0"
         y="0"
         id="tspan96">h</tspan></text>
    <text
       class="cls-2"
       transform="rotate(-51.01,1499.7054,-539.41876)"
       id="text102"><tspan
         x="0"
         y="0"
         id="tspan100">a</tspan></text>
    <text
       class="cls-2"
       transform="rotate(-58.23,1343.9337,-417.70757)"
       id="text106"><tspan
         x="0"
         y="0"
         id="tspan104">l</tspan></text>
    <text
       class="cls-2"
       transform="rotate(-64.09,1242.6017,-334.81961)"
       id="text110"><tspan
         x="0"
         y="0"
         id="tspan108">t</tspan></text>
    <text
       class="cls-2"
       transform="rotate(-69.99,1156.0828,-263.95455)"
       id="text114"><tspan
         x="0"
         y="0"
         id="tspan112">i</tspan></text>
    <text
       class="cls-2"
       transform="rotate(-77.75,1062.4812,-182.00768)"
       id="text118"><tspan
         x="0"
         y="0"
         id="tspan116">g</tspan></text>
    <text
       class="cls-2"
       transform="rotate(-87.29,964.174,-102.18719)"
       id="text122"><tspan
         x="0"
         y="0"
         id="tspan120">*</tspan></text>
    <text
       class="cls-2"
       transform="rotate(-90,929.895,-91.505)"
       id="text178"><tspan
         x="0"
         y="0"
         id="tspan124" /><tspan
         x="14.94"
         y="0"
         id="tspan126">k</tspan><tspan
         x="41.41"
         y="0"
         id="tspan128">l</tspan><tspan
         x="57.64"
         y="0"
         id="tspan130">i</tspan><tspan
         x="73.87"
         y="0"
         id="tspan132">m</tspan><tspan
         x="113.08"
         y="0"
         id="tspan134">a</tspan><tspan
         x="136.96"
         y="0"
         id="tspan136">g</tspan><tspan
         x="163.42"
         y="0"
         id="tspan138">e</tspan><tspan
         x="187.29"
         y="0"
         id="tspan140">r</tspan><tspan
         x="206.05"
         y="0"
         id="tspan142">e</tspan><tspan
         x="229.92"
         y="0"
         id="tspan144">c</tspan><tspan
         x="253.81"
         y="0"
         id="tspan146">h</tspan><tspan
         x="280.25"
         y="0"
         id="tspan148">t</tspan><tspan
         x="296.49"
         y="0"
         id="tspan150">*</tspan><tspan
         x="322.93"
         y="0"
         id="tspan152" /><tspan
         x="337.89"
         y="0"
         id="tspan154">f</tspan><tspan
         x="356.65"
         y="0"
         id="tspan156">e</tspan><tspan
         x="380.54"
         y="0"
         id="tspan158">m</tspan><tspan
         x="419.78"
         y="0"
         id="tspan160">i</tspan><tspan
         x="436"
         y="0"
         id="tspan162">n</tspan><tspan
         x="462.46"
         y="0"
         id="tspan164">i</tspan><tspan
         x="478.69"
         y="0"
         id="tspan166">s</tspan><tspan
         x="500.03"
         y="0"
         id="tspan168">t</tspan><tspan
         x="516.27"
         y="0"
         id="tspan170">i</tspan><tspan
         x="532.5"
         y="0"
         id="tspan172">s</tspan><tspan
         x="553.85"
         y="0"
         id="tspan174">c</tspan><tspan
         x="577.73"
         y="0"
         id="tspan176">h</tspan></text>
    <text
       class="cls-2"
       transform="rotate(-94.07,619.36641,-359.34018)"
       id="text182"><tspan
         x="0"
         y="0"
         id="tspan180">*</tspan></text>
    <text
       class="cls-2"
       transform="rotate(-101.53,592.82514,-313.96616)"
       id="text186"><tspan
         x="0"
         y="0"
         id="tspan184" /></text>
    <text
       class="cls-2"
       transform="rotate(-109.07,574.30752,-268.20185)"
       id="text190"><tspan
         x="0"
         y="0"
         id="tspan188">d</tspan></text>
    <text
       class="cls-2"
       transform="rotate(-116.82,551.73021,-229.21183)"
       id="text194"><tspan
         x="0"
         y="0"
         id="tspan192">i</tspan></text>
    <text
       class="cls-2"
       transform="rotate(-124.53,535.89567,-190.54729)"
       id="text198"><tspan
         x="0"
         y="0"
         id="tspan196">v</tspan></text>
    <text
       class="cls-2"
       transform="rotate(-133.55,515.24318,-150.6551)"
       id="text202"><tspan
         x="0"
         y="0"
         id="tspan200">e</tspan></text>
    <text
       class="cls-2"
       transform="rotate(-141.2,498.033,-119.07202)"
       id="text206"><tspan
         x="0"
         y="0"
         id="tspan204">r</tspan></text>
    <text
       class="cls-2"
       transform="rotate(-148.41,484.34713,-89.965122)"
       id="text210"><tspan
         x="0"
         y="0"
         id="tspan208">s</tspan></text>
    <text
       class="cls-2"
       transform="rotate(-157.06,469.17851,-56.337925)"
       id="text214"><tspan
         x="0"
         y="0"
         id="tspan212">*</tspan></text>
    <text
       class="cls-2"
       transform="rotate(-164.6,452.43563,-28.556173)"
       id="text218"><tspan
         x="0"
         y="0"
         id="tspan216" /></text>
    <text
       class="cls-2"
       transform="rotate(-171.19,442.09676,-4.064373)"
       id="text222"><tspan
         x="0"
         y="0"
         id="tspan220">s</tspan></text>
    <text
       class="cls-2"
       transform="rotate(-179.07,428.06863,24.697668)"
       id="text226"><tspan
         x="0"
         y="0"
         id="tspan224">o</tspan></text>
    <text
       class="cls-2"
       transform="rotate(180,414.515,28.075)"
       id="text286"><tspan
         x="0"
         y="0"
         id="tspan228">l</tspan><tspan
         x="16.21"
         y="0"
         id="tspan230">i</tspan><tspan
         x="32.46"
         y="0"
         id="tspan232">d</tspan><tspan
         x="58.91"
         y="0"
         id="tspan234">a</tspan><tspan
         x="82.77"
         y="0"
         id="tspan236">r</tspan><tspan
         x="101.53"
         y="0"
         id="tspan238">i</tspan><tspan
         x="117.77"
         y="0"
         id="tspan240">s</tspan><tspan
         x="139.12"
         y="0"
         id="tspan242">c</tspan><tspan
         x="163"
         y="0"
         id="tspan244">h</tspan><tspan
         x="189.46"
         y="0"
         id="tspan246">*</tspan><tspan
         x="215.89"
         y="0"
         id="tspan248" /><tspan
         x="230.85"
         y="0"
         id="tspan250">v</tspan><tspan
         x="257.3"
         y="0"
         id="tspan252">i</tspan><tspan
         x="273.54"
         y="0"
         id="tspan254">e</tspan><tspan
         x="297.4"
         y="0"
         id="tspan256">l</tspan><tspan
         x="313.64"
         y="0"
         id="tspan258">f</tspan><tspan
         x="332.41"
         y="0"
         id="tspan260">ä</tspan><tspan
         x="356.26"
         y="0"
         id="tspan262">l</tspan><tspan
         x="372.51"
         y="0"
         id="tspan264">t</tspan><tspan
         x="388.74"
         y="0"
         id="tspan266">i</tspan><tspan
         x="404.97"
         y="0"
         id="tspan268">g</tspan><tspan
         x="431.42"
         y="0"
         id="tspan270">*</tspan><tspan
         x="457.86"
         y="0"
         id="tspan272" /><tspan
         x="472.82"
         y="0"
         id="tspan274">a</tspan><tspan
         x="496.69"
         y="0"
         id="tspan276">n</tspan><tspan
         x="523.16"
         y="0"
         id="tspan278">t</tspan><tspan
         x="539.38"
         y="0"
         id="tspan280">i</tspan><tspan
         x="555.6"
         y="0"
         id="tspan282">r</tspan><tspan
         x="574.38"
         y="0"
         id="tspan284">a</tspan></text>
    <text
       class="cls-2"
       transform="rotate(176.44,113.91578,31.537157)"
       id="text290"><tspan
         x="0"
         y="0"
         id="tspan288">s</tspan></text>
    <text
       class="cls-2"
       transform="rotate(168.75,99.997121,39.044348)"
       id="text294"><tspan
         x="0"
         y="0"
         id="tspan292">s</tspan></text>
    <text
       class="cls-2"
       transform="rotate(161.91,86.280302,46.002422)"
       id="text298"><tspan
         x="0"
         y="0"
         id="tspan296">i</tspan></text>
    <text
       class="cls-2"
       transform="rotate(155.08,74.890057,52.669392)"
       id="text302"><tspan
         x="0"
         y="0"
         id="tspan300">s</tspan></text>
    <text
       class="cls-2"
       transform="rotate(148.28,60.621742,60.067734)"
       id="text306"><tspan
         x="0"
         y="0"
         id="tspan304">t</tspan></text>
    <text
       class="cls-2"
       transform="rotate(142.44,49.066294,66.385559)"
       id="text310"><tspan
         x="0"
         y="0"
         id="tspan308">i</tspan></text>
    <text
       class="cls-2"
       transform="rotate(135.7,36.468385,73.439769)"
       id="text314"><tspan
         x="0"
         y="0"
         id="tspan312">s</tspan></text>
    <text
       class="cls-2"
       transform="rotate(127.6,19.484432,82.643054)"
       id="text318"><tspan
         x="0"
         y="0"
         id="tspan316">c</tspan></text>
    <text
       class="cls-2"
       transform="rotate(118.53,-1.0219006,93.618319)"
       id="text322"><tspan
         x="0"
         y="0"
         id="tspan320">h</tspan></text>
    <text
       class="cls-2"
       transform="rotate(108.93,-25.625584,106.74192)"
       id="text326"><tspan
         x="0"
         y="0"
         id="tspan324">*</tspan></text>
    <text
       class="cls-2"
       transform="rotate(101.4,-49.918923,120.52355)"
       id="text330"><tspan
         x="0"
         y="0"
         id="tspan328" /></text>
    <text
       class="cls-2"
       transform="rotate(94.4,-69.850708,130.61454)"
       id="text334"><tspan
         x="0"
         y="0"
         id="tspan332">a</tspan></text>
    <text
       class="cls-2"
       transform="rotate(90,-90.935,144.645)"
       id="text392"><tspan
         x="0"
         y="0"
         id="tspan336">n</tspan><tspan
         x="26.47"
         y="0"
         id="tspan338">t</tspan><tspan
         x="42.7"
         y="0"
         id="tspan340">i</tspan><tspan
         x="58.94"
         y="0"
         id="tspan342">k</tspan><tspan
         x="85.4"
         y="0"
         id="tspan344">a</tspan><tspan
         x="109.25"
         y="0"
         id="tspan346">p</tspan><tspan
         x="135.71"
         y="0"
         id="tspan348">i</tspan><tspan
         x="151.93"
         y="0"
         id="tspan350">t</tspan><tspan
         x="168.16"
         y="0"
         id="tspan352">a</tspan><tspan
         x="192.05"
         y="0"
         id="tspan354">l</tspan><tspan
         x="208.27"
         y="0"
         id="tspan356">i</tspan><tspan
         x="224.49"
         y="0"
         id="tspan358">s</tspan><tspan
         x="245.84"
         y="0"
         id="tspan360">t</tspan><tspan
         x="262.09"
         y="0"
         id="tspan362">i</tspan><tspan
         x="278.32"
         y="0"
         id="tspan364">s</tspan><tspan
         x="299.67"
         y="0"
         id="tspan366">c</tspan><tspan
         x="323.55"
         y="0"
         id="tspan368">h</tspan><tspan
         x="350"
         y="0"
         id="tspan370">*</tspan><tspan
         x="376.44"
         y="0"
         id="tspan372" /><tspan
         x="391.39"
         y="0"
         id="tspan374">d</tspan><tspan
         x="417.84"
         y="0"
         id="tspan376">y</tspan><tspan
         x="444.31"
         y="0"
         id="tspan378">n</tspan><tspan
         x="470.76"
         y="0"
         id="tspan380">a</tspan><tspan
         x="494.63"
         y="0"
         id="tspan382">m</tspan><tspan
         x="533.85"
         y="0"
         id="tspan384">i</tspan><tspan
         x="550.09"
         y="0"
         id="tspan386">s</tspan><tspan
         x="571.44"
         y="0"
         id="tspan388">c</tspan><tspan
         x="595.36"
         y="0"
         id="tspan390">h</tspan></text>
    <text
       class="cls-2"
       transform="rotate(81.77,-469.72981,461.13839)"
       id="text396"><tspan
         x="0"
         y="0"
         id="tspan394">*</tspan></text>
    <path
       class="cls-1"
       d="m154.98,923.74c2.64.88,4.1-2.34,2.64-3.81l-26.08-26.08c-4.69-4.98-6.15-9.67-6.15-13.77,0-8.79,8.5-14.94,17.87-14.94,10.84,0,14.65,6.74,16.7,16.99l5.27,32.52c.29,1.17,1.46,1.76,2.34,1.76s1.46-.29,2.05-1.46l24.91-40.73c4.4-7.03,8.79-9.96,13.77-10.25,6.74-.29,15.24,5.57,15.24,13.48,0,4.1-2.93,7.91-8.2,12.31l-41.61,31.64c-.59.59-.88,1.17-.88,1.76,0,1.17.59,2.05,2.05,2.05l48.34,8.79c10.25,2.05,14.36,8.79,14.36,15.82,0,10.25-7.62,17.29-17.58,17.29-5.86,0-10.55-4.98-18.75-10.84l-29.01-22.85c-1.46-1.17-3.81-1.17-4.1,1.76l-.88,45.12c-.88,10.84-4.69,20.51-15.24,20.51s-16.99-9.96-12.6-20.8l20.51-47.17c.88-2.34-.88-3.81-2.93-3.22l-40.43,13.77c-11.43,3.52-18.46-2.05-18.46-12.89,0-13.19,9.67-18.75,25.49-14.36l31.35,7.62Z"
       id="path398" />
  </g>
</svg>
