<?xml version="1.0" encoding="UTF-8" standalone="no"?>
<svg
   id="Layer_1"
   viewBox="0 0 1080 1080"
   version="1.1"
   sodipodi:docname="profilbild_vorlage_quadratisch.svg"
   inkscape:version="1.2.2 (b0a8486541, 2022-12-01, custom)"
   xmlns:inkscape="http://www.inkscape.org/namespaces/inkscape"
   xmlns:sodipodi="http://sodipodi.sourceforge.net/DTD/sodipodi-0.dtd"
   xmlns="http://www.w3.org/2000/svg"
   xmlns:svg="http://www.w3.org/2000/svg">
  <sodipodi:namedview
     id="namedview401"
     pagecolor="#ffffff"
     bordercolor="#000000"
     borderopacity="0.25"
     inkscape:showpageshadow="2"
     inkscape:pageopacity="0"
     inkscape:pagecheckerboard="true"
     inkscape:deskcolor="#d1d1d1"
     showgrid="false"
     inkscape:zoom="0.7537037"
     inkscape:cx="585.11057"
     inkscape:cy="540.66339"
     inkscape:window-width="1850"
     inkscape:window-height="1016"
     inkscape:window-x="0"
     inkscape:window-y="0"
     inkscape:window-maximized="1"
     inkscape:current-layer="layer1" />
  <defs
     id="defs20">
    <style
       id="style18">.cls-1{fill:#e72b71;}.cls-2{fill:#1a1a1a;font-family:TimesNewRomanPSMT, 'Times New Roman';font-size:46px;}</style>
  </defs>
  <g
     inkscape:groupmode="layer"
     id="layer2"
     inkscape:label="BG">
    <path
       id="rect682"
       style="fill:#ffffff;fill-opacity:1"
       d="M -9.2929688 -6.0898438 L -9.2929688 1089.9258 L 1097.7207 1089.9258 L 1097.7207 -6.0898438 L -9.2929688 -6.0898438 z M 237.67383 105.34766 L 842.32617 105.34766 C 917.21351 105.34766 977.50195 165.6361 977.50195 240.52344 L 977.50195 839.47656 C 977.50195 914.3639 917.21351 974.65234 842.32617 974.65234 L 237.67383 974.65234 C 162.78649 974.65234 102.49805 914.3639 102.49805 839.47656 L 102.49805 240.52344 C 102.49805 165.6361 162.78649 105.34766 237.67383 105.34766 z " />
  </g>
  <g
     inkscape:groupmode="layer"
     id="layer1"
     inkscape:label="layer1">
    <g
       aria-label="wähltprogressiv*inklusiv*"
       transform="translate(228.23,1023.85)"
       id="text78"
       class="cls-2"
       style="font-size:46px;font-family:TimesNewRomanPSMT, 'Times New Roman';fill:#1a1a1a">
      <path
         d="M 23.606445,0.44921875 H 21.854492 L 16.643555,-13.476563 11.5,0.44921875 H 9.8378906 L 2.5380859,-19.541016 0.04492187,-20.102539 v -1.010742 H 10.084961 v 1.010742 l -3.5039063,0.606445 5.0087893,14.2626956 5.098633,-13.7685546 h 1.886718 l 5.076172,13.8583983 4.78418,-14.3974613 -3.458985,-0.561523 v -1.010742 h 8.041016 v 1.010742 l -2.335937,0.47168 z"
         id="path13773" />
      <path
         d="m 47.134335,-21.584961 q 3.458984,0 5.076171,1.415039 1.639649,1.415039 1.639649,4.334961 v 14.2626954 l 2.62793,0.5615234 V 0 h -5.794922 l -0.426758,-2.1113281 q -2.560547,2.56054685 -6.536133,2.56054685 -5.413086,0 -5.413086,-6.28906245 0,-2.1113282 0.808594,-3.4814454 0.831055,-1.3925779 2.62793,-2.1113279 1.796875,-0.741211 5.210937,-0.808594 l 3.166992,-0.08984 v -3.301758 q 0,-2.17871 -0.808593,-3.211914 -0.786133,-1.033203 -2.448243,-1.033203 -2.246093,0 -4.110351,1.055664 l -0.763672,2.62793 h -1.257813 v -4.604492 q 3.638672,-0.786133 6.401368,-0.786133 z m 2.987304,10.826172 -2.942383,0.08984 q -3.009765,0.112304 -4.08789,1.1679684 -1.055664,1.0556641 -1.055664,3.5263672 0,3.953125 3.211914,3.953125 1.527344,0 2.62793,-0.336914 1.123046,-0.359375 2.246093,-0.8984375 z m 3.032227,-16.05957 q 0,0.943359 -0.628906,1.617187 -0.628907,0.651367 -1.572266,0.651367 -0.943359,0 -1.594727,-0.696289 -0.651367,-0.696289 -0.651367,-1.572265 0,-0.94336 0.651367,-1.594727 0.651368,-0.651367 1.594727,-0.651367 0.943359,0 1.572266,0.651367 0.628906,0.651367 0.628906,1.594727 z m -7.996094,0 q 0,0.943359 -0.628906,1.617187 -0.628906,0.651367 -1.572266,0.651367 -0.920898,0 -1.594726,-0.673828 -0.673828,-0.673828 -0.673828,-1.594726 0,-0.94336 0.696289,-1.594727 0.696289,-0.651367 1.572265,-0.651367 0.94336,0 1.572266,0.651367 0.628906,0.651367 0.628906,1.594727 z"
         id="path13775" />
      <path
         d="m 67.882267,-22.775391 q 0,2.335938 -0.157227,3.369141 1.617188,-0.920898 3.661133,-1.594727 2.066406,-0.673828 3.481446,-0.673828 2.740234,0 4.132812,1.594727 1.392578,1.594726 1.392578,4.626953 v 13.8808594 l 2.560547,0.5615234 V 0 h -9.09668 v -1.0107422 l 2.807618,-0.5615234 V -15.183594 q 0,-3.863281 -3.728516,-3.863281 -2.111328,0 -5.053711,0.651367 v 16.8232424 l 2.852539,0.5615234 V 0 H 61.4809 v -1.0107422 l 2.672851,-0.5615234 V -30.367187 L 61.00922,-30.90625 v -1.010742 h 6.873047 z"
         id="path13777" />
      <path
         d="m 95.243164,-1.5722656 3.616211,0.5615234 V 0 H 87.920898 v -1.0107422 l 3.59375,-0.5615234 V -30.367187 l -3.59375,-0.539063 v -1.010742 h 7.322266 z"
         id="path13779" />
      <path
         d="m 110.73196,0.44921875 q -2.15625,0 -3.23438,-1.28027344 -1.05566,-1.28027341 -1.05566,-3.59375001 V -19.226562 h -2.7627 v -1.010743 l 2.80762,-0.875976 2.26855,-4.78418 h 1.41504 v 4.78418 h 4.8291 v 1.886719 h -4.8291 v 14.3974604 q 0,1.459961 0.65137,2.2011719 0.67383,0.741211 1.75195,0.741211 1.30274,0 3.167,-0.3593751 v 1.45996099 q -0.78614,0.5390625 -2.26856,0.87597656 -1.48242,0.359375 -2.74023,0.359375 z"
         id="path13781" />
      <path
         d="m 137.82407,-19.541016 -2.40332,-0.561523 v -1.010742 h 5.92968 l 0.0449,1.235351 q 0.94335,-0.808593 2.51562,-1.302734 1.59473,-0.494141 3.23438,-0.494141 4.04296,0 6.24414,2.807618 2.22363,2.807617 2.22363,8.063476 0,5.3681641 -2.42578,8.3105469 -2.40332,2.94238285 -6.96289,2.94238285 -2.53809,0 -4.8291,-0.49414062 0.13476,1.61718747 0.13476,2.53808597 v 5.7050781 l 3.68359,0.5390625 v 1.0556641 h -10.0625 V 8.7373047 l 2.67286,-0.5390625 z m 13.74609,8.737305 q 0,-4.3125 -1.41504,-6.401367 -1.39258,-2.111328 -4.24512,-2.111328 -2.62793,0 -4.37988,0.741211 v 16.8681638 q 1.99902,0.3818359 4.37988,0.3818359 5.66016,0 5.66016,-9.4785157 z"
         id="path13783" />
      <path
         d="m 175.77406,-21.674805 v 5.705078 h -0.96582 l -1.30273,-2.470703 q -1.12305,0 -2.67285,0.314453 -1.52735,0.291993 -2.65039,0.786133 v 15.7675784 l 3.61621,0.5615234 V 0 H 161.7809 v -1.0107422 l 2.67285,-0.5615234 V -19.541016 l -2.67285,-0.561523 v -1.010742 h 6.1543 l 0.20214,2.627929 q 1.34766,-1.123046 3.63868,-2.15625 2.31347,-1.033203 3.66113,-1.033203 z"
         id="path13785" />
      <path
         d="m 200.88805,-10.668945 q 0,11.11816375 -9.88282,11.11816375 -4.76171,0 -7.1875,-2.85253905 -2.42578,-2.8525391 -2.42578,-8.2656247 0,-5.345703 2.42578,-8.175782 2.42579,-2.830078 7.36719,-2.830078 4.80664,0 7.25488,2.785157 2.44825,2.762695 2.44825,8.220703 z m -4.04297,0 q 0,-4.851563 -1.41504,-7.030274 -1.41504,-2.178711 -4.42481,-2.178711 -2.94238,0 -4.26757,2.088868 -1.30274,2.088867 -1.30274,7.120117 0,5.0986325 1.3252,7.2324216 1.34765,2.1113281 4.24511,2.1113281 2.96485,0 4.40235,-2.2011719 1.4375,-2.2011719 1.4375,-7.1425778 z"
         id="path13787" />
      <path
         d="m 225.63101,-14.442383 q 0,3.638672 -2.17871,5.5029299 -2.17871,1.8642578 -6.2666,1.8642578 -1.8418,0 -3.41406,-0.3369141 l -1.41504,2.9423828 q 0.0674,0.381836 0.87597,0.71875 0.8086,0.3369141 2.02149,0.3369141 h 6.24414 q 3.41406,0 5.05371,1.4824219 1.66211,1.48242185 1.66211,4.0878906 0,2.3583984 -1.3252,4.1103516 -1.30273,1.7519531 -3.84082,2.6953125 -2.53808,0.9658203 -6.15429,0.9658203 -4.3125,0 -6.58106,-1.3251953 -2.24609,-1.3251954 -2.24609,-3.7734375 0,-1.1904297 0.80859,-2.3583985 0.8086,-1.1455078 2.96485,-2.69531248 -1.28028,-0.42675781 -2.15625,-1.45996092 -0.87598,-1.0332031 -0.87598,-2.2236328 L 212.3566,-7.90625 q -3.54883,-1.6621094 -3.54883,-6.536133 0,-3.458984 2.17871,-5.345703 2.20117,-1.886719 6.37891,-1.886719 0.83105,0 2.13379,0.179688 1.30273,0.157226 1.99902,0.381836 l 4.96387,-2.493164 0.78613,0.96582 -3.12207,3.234375 q 1.50488,1.68457 1.50488,4.963867 z m -0.9209,17.2949221 q 0,-1.2802735 -0.78613,-1.99902347 -0.78613,-0.71875001 -2.38086,-0.71875001 h -8.17578 q -0.94336,0.80859376 -1.5498,2.04394528 -0.58399,1.2578125 -0.58399,2.3359375 0,1.9316407 1.39258,2.7626953 1.39258,0.8535157 4.26758,0.8535157 3.75097,0 5.77246,-1.3925782 2.04394,-1.3925781 2.04394,-3.8857421 z m -7.47949,-11.6347657 q 2.44824,0 3.45899,-1.3925784 1.0332,-1.415039 1.0332,-4.267578 0,-2.987304 -1.05567,-4.245117 -1.05566,-1.280273 -3.3916,-1.280273 -2.3584,0 -3.45898,1.280273 -1.10059,1.280273 -1.10059,4.245117 0,2.964844 1.07813,4.3125 1.07812,1.3476564 3.43652,1.3476564 z"
         id="path13789" />
      <path
         d="m 247.45406,-21.674805 v 5.705078 h -0.96582 l -1.30274,-2.470703 q -1.12305,0 -2.67285,0.314453 -1.52734,0.291993 -2.65039,0.786133 v 15.7675784 l 3.61621,0.5615234 V 0 h -10.01758 v -1.0107422 l 2.67285,-0.5615234 V -19.541016 l -2.67285,-0.561523 v -1.010742 h 6.1543 l 0.20215,2.627929 q 1.34765,-1.123046 3.63867,-2.15625 2.31348,-1.033203 3.66113,-1.033203 z"
         id="path13791" />
      <path
         d="m 257.15985,-10.624023 v 0.404296 q 0,3.0996098 0.67383,4.829102 0.69629,1.7070312 2.11133,2.6054687 1.4375,0.8984376 3.75097,0.8984376 1.21289,0 2.875,-0.2021485 1.66211,-0.2021484 2.74024,-0.4492187 v 1.2578125 q -1.07813,0.69628903 -2.94238,1.21289059 -1.8418,0.51660156 -3.77344,0.51660156 -4.91895,0 -7.20996,-2.65039065 -2.26856,-2.6503906 -2.26856,-8.5126951 0,-5.525391 2.31348,-8.243164 2.31348,-2.717774 6.60351,-2.717774 8.1084,0 8.1084,9.208985 v 1.841797 z m 4.87402,-9.253907 q -2.33593,0 -3.59375,1.886719 -1.23535,1.886719 -1.23535,5.570313 h 9.0293 q 0,-4.020508 -1.0332,-5.727539 -1.03321,-1.729493 -3.167,-1.729493 z"
         id="path13793" />
      <path
         d="m 291.41925,-5.9296875 q 0,3.1445312 -1.99902,4.7617188 -1.97657,1.61718745 -5.86231,1.61718745 -1.57226,0 -3.48144,-0.33691406 -1.88672,-0.31445313 -2.96485,-0.71875 V -5.7949219 h 1.01075 l 1.10058,2.9423828 q 1.68457,1.5273438 4.37988,1.5273438 4.35743,0 4.35743,-3.7285156 0,-2.7402344 -3.43653,-3.9082032 l -1.99902,-0.6513672 q -2.26856,-0.7412107 -3.30176,-1.5048827 -1.0332,-0.763672 -1.59473,-1.864258 -0.56152,-1.123047 -0.56152,-2.695312 0,-2.785157 1.88672,-4.379883 1.90918,-1.617188 5.14355,-1.617188 2.31348,0 5.79493,0.696289 v 4.604493 h -1.05567 l -0.94336,-2.448243 q -1.19043,-1.055664 -3.75097,-1.055664 -1.81934,0 -2.78516,0.898438 -0.94336,0.898437 -0.94336,2.425781 0,1.280273 0.85352,2.15625 0.87597,0.875977 2.62793,1.459961 3.30175,1.123047 4.3125,1.639648 1.01074,0.516602 1.70703,1.280274 0.71875,0.7412108 1.10058,1.7070311 0.4043,0.9658203 0.4043,2.3808594 z"
         id="path13795" />
      <path
         d="m 312.77927,-5.9296875 q 0,3.1445312 -1.99903,4.7617188 -1.97656,1.61718745 -5.8623,1.61718745 -1.57227,0 -3.48145,-0.33691406 -1.88672,-0.31445313 -2.96484,-0.71875 V -5.7949219 h 1.01074 l 1.10059,2.9423828 q 1.68457,1.5273438 4.37988,1.5273438 4.35742,0 4.35742,-3.7285156 0,-2.7402344 -3.43652,-3.9082032 l -1.99902,-0.6513672 q -2.26856,-0.7412107 -3.30176,-1.5048827 -1.03321,-0.763672 -1.59473,-1.864258 -0.56152,-1.123047 -0.56152,-2.695312 0,-2.785157 1.88672,-4.379883 1.90918,-1.617188 5.14355,-1.617188 2.31348,0 5.79492,0.696289 v 4.604493 h -1.05566 l -0.94336,-2.448243 q -1.19043,-1.055664 -3.75098,-1.055664 -1.81933,0 -2.78515,0.898438 -0.94336,0.898437 -0.94336,2.425781 0,1.280273 0.85351,2.15625 0.87598,0.875977 2.62793,1.459961 3.30176,1.123047 4.3125,1.639648 1.01074,0.516602 1.70703,1.280274 0.71875,0.7412108 1.10059,1.7070311 0.4043,0.9658203 0.4043,2.3808594 z"
         id="path13797" />
      <path
         d="m 326.41269,-28.008789 q 0,0.988281 -0.71875,1.707031 -0.71875,0.71875 -1.72949,0.71875 -0.98828,0 -1.70703,-0.71875 -0.71875,-0.71875 -0.71875,-1.707031 0,-1.010742 0.71875,-1.729492 0.71875,-0.71875 1.70703,-0.71875 1.01074,0 1.72949,0.71875 0.71875,0.71875 0.71875,1.729492 z m -0.22461,26.4365234 3.61621,0.5615234 V 0 h -10.93848 v -1.0107422 l 3.59375,-0.5615234 V -19.541016 l -2.9873,-0.561523 v -1.010742 h 6.71582 z"
         id="path13799" />
      <path
         d="m 346.64075,0.44921875 h -1.66211 L 336.28625,-19.541016 334.13,-20.102539 v -1.010742 h 9.8379 v 1.010742 l -3.34668,0.606445 6.15429,14.5771487 5.88477,-14.6220707 -3.34668,-0.561523 v -1.010742 h 7.8164 v 1.010742 l -2.02148,0.47168 z"
         id="path13801" />
      <path
         d="m 362.80609,-23.920898 1.4375,-3.211914 7.0752,4.357421 -0.96582,-7.344726 h 3.5039 l -1.05566,7.344726 7.12012,-4.267578 1.4375,3.166992 -7.45704,2.201172 7.45704,2.178711 -1.4375,3.166992 -7.12012,-4.222656 1.05566,7.299805 h -3.5039 l 0.96582,-7.367188 -7.0752,4.379883 -1.4375,-3.211914 7.36719,-2.223633 z"
         id="path13803" />
      <path
         d="m 410.49271,-28.008789 q 0,0.988281 -0.71875,1.707031 -0.71875,0.71875 -1.7295,0.71875 -0.98828,0 -1.70703,-0.71875 -0.71875,-0.71875 -0.71875,-1.707031 0,-1.010742 0.71875,-1.729492 0.71875,-0.71875 1.70703,-0.71875 1.01075,0 1.7295,0.71875 0.71875,0.71875 0.71875,1.729492 z m -0.22461,26.4365234 3.61621,0.5615234 V 0 h -10.93848 v -1.0107422 l 3.59375,-0.5615234 V -19.541016 l -2.9873,-0.561523 v -1.010742 h 6.71582 z"
         id="path13805" />
      <path
         d="m 425.48734,-19.40625 q 1.72949,-0.988281 3.68359,-1.617187 1.9541,-0.651368 3.25683,-0.651368 2.74024,0 4.13282,1.594727 1.39258,1.594726 1.39258,4.626953 v 13.8808594 l 2.56054,0.5615234 V 0 h -9.09668 v -1.0107422 l 2.80762,-0.5615234 V -15.048828 q 0,-1.864258 -0.9209,-2.919922 -0.89844,-1.078125 -2.80762,-1.078125 -2.02148,0 -4.96386,0.651367 v 16.8232424 l 2.85254,0.5615234 V 0 h -9.11914 v -1.0107422 l 2.53808,-0.5615234 V -19.541016 l -2.53808,-0.561523 v -1.010742 h 6.01953 z"
         id="path13807" />
      <path
         d="m 452.39658,-10.174805 8.64746,-9.321289 -2.20118,-0.606445 v -1.010742 h 7.45704 v 1.010742 l -2.62793,0.516602 -6.01953,6.154296 7.72656,11.9042973 2.29101,0.5166015 V 0 h -8.64746 v -1.0107422 l 1.93164,-0.5615234 -5.79492,-9.0966794 -2.76269,3.0322263 v 6.0644531 l 2.24609,0.5615234 V 0 h -8.64746 v -1.0107422 l 2.67285,-0.5615234 V -30.367187 l -3.12207,-0.539063 v -1.010742 h 6.85059 z"
         id="path13809" />
      <path
         d="m 479.37317,-1.5722656 3.61621,0.5615234 V 0 H 472.0509 v -1.0107422 l 3.59375,-0.5615234 V -30.367187 l -3.59375,-0.539063 v -1.010742 h 7.32227 z"
         id="path13811" />
      <path
         d="m 494.38028,-6.0195312 q 0,3.8632812 3.59375,3.8632812 2.78516,0 5.21094,-0.6962891 V -19.541016 l -3.18946,-0.561523 v -1.010742 h 6.89551 v 19.5410154 l 2.67285,0.5615234 V 0 h -6.15429 l -0.17969,-1.7070312 q -1.59473,0.87597651 -3.68359,1.5273437 -2.08887,0.62890625 -3.50391,0.62890625 -5.39063,0 -5.39063,-6.19921875 v -13.791016 l -2.69531,-0.561523 v -1.010742 h 6.42383 z"
         id="path13813" />
      <path
         d="m 530.02924,-5.9296875 q 0,3.1445312 -1.99903,4.7617188 -1.97656,1.61718745 -5.8623,1.61718745 -1.57227,0 -3.48145,-0.33691406 -1.88672,-0.31445313 -2.96484,-0.71875 V -5.7949219 h 1.01074 l 1.10059,2.9423828 q 1.68457,1.5273438 4.37988,1.5273438 4.35742,0 4.35742,-3.7285156 0,-2.7402344 -3.43652,-3.9082032 l -1.99903,-0.6513672 q -2.26855,-0.7412107 -3.30175,-1.5048827 -1.03321,-0.763672 -1.59473,-1.864258 -0.56152,-1.123047 -0.56152,-2.695312 0,-2.785157 1.88672,-4.379883 1.90918,-1.617188 5.14355,-1.617188 2.31348,0 5.79492,0.696289 v 4.604493 h -1.05566 l -0.94336,-2.448243 q -1.19043,-1.055664 -3.75098,-1.055664 -1.81933,0 -2.78515,0.898438 -0.94336,0.898437 -0.94336,2.425781 0,1.280273 0.85351,2.15625 0.87598,0.875977 2.62793,1.459961 3.30176,1.123047 4.3125,1.639648 1.01074,0.516602 1.70703,1.280274 0.71875,0.7412108 1.10059,1.7070311 0.4043,0.9658203 0.4043,2.3808594 z"
         id="path13815" />
      <path
         d="m 543.65271,-28.008789 q 0,0.988281 -0.71875,1.707031 -0.71875,0.71875 -1.72949,0.71875 -0.98828,0 -1.70703,-0.71875 -0.71875,-0.71875 -0.71875,-1.707031 0,-1.010742 0.71875,-1.729492 0.71875,-0.71875 1.70703,-0.71875 1.01074,0 1.72949,0.71875 0.71875,0.71875 0.71875,1.729492 z m -0.22461,26.4365234 3.61621,0.5615234 V 0 h -10.93848 v -1.0107422 l 3.59375,-0.5615234 V -19.541016 l -2.9873,-0.561523 v -1.010742 h 6.71582 z"
         id="path13817" />
      <path
         d="m 563.90076,0.44921875 h -1.66211 l -8.69239,-19.99023475 -2.15625,-0.561523 v -1.010742 h 9.8379 v 1.010742 l -3.34668,0.606445 6.15429,14.5771487 5.88477,-14.6220707 -3.34668,-0.561523 v -1.010742 h 7.8164 v 1.010742 l -2.02148,0.47168 z"
         id="path13819" />
      <path
         d="m 580.07611,-23.920898 1.4375,-3.211914 7.0752,4.357421 -0.96582,-7.344726 h 3.5039 l -1.05566,7.344726 7.12012,-4.267578 1.4375,3.166992 -7.45704,2.201172 7.45704,2.178711 -1.4375,3.166992 -7.12012,-4.222656 1.05566,7.299805 h -3.5039 l 0.96582,-7.367188 -7.0752,4.379883 -1.4375,-3.211914 7.36719,-2.223633 z"
         id="path13821" />
    </g>
    <g
       aria-label="n"
       transform="rotate(-5.6,10894.42,-8171.4654)"
       id="text82"
       class="cls-2"
       style="font-size:46px;font-family:TimesNewRomanPSMT, 'Times New Roman';fill:#1a1a1a">
      <path
         d="m 7.2773437,-19.40625 q 1.7294922,-0.988281 3.6835943,-1.617187 1.954101,-0.651368 3.256835,-0.651368 2.740235,0 4.132813,1.594727 1.392578,1.594726 1.392578,4.626953 v 13.8808594 l 2.560547,0.5615234 V 0 h -9.09668 v -1.0107422 l 2.807617,-0.5615234 V -15.048828 q 0,-1.864258 -0.920898,-2.919922 -0.898437,-1.078125 -2.807617,-1.078125 -2.021485,0 -4.9638674,0.651367 v 16.8232424 l 2.8525394,0.5615234 V 0 H 1.0556641 V -1.0107422 L 3.59375,-1.5722656 V -19.541016 l -2.5380859,-0.561523 v -1.010742 h 6.0195312 z"
         id="path13824" />
    </g>
    <g
       aria-label="a"
       transform="rotate(-14.71,4392.804,-2893.5471)"
       id="text86"
       class="cls-2"
       style="font-size:46px;font-family:TimesNewRomanPSMT, 'Times New Roman';fill:#1a1a1a">
      <path
         d="m 10.444336,-21.584961 q 3.458984,0 5.076172,1.415039 1.639648,1.415039 1.639648,4.334961 v 14.2626954 l 2.62793,0.5615234 V 0 h -5.794922 l -0.426758,-2.1113281 q -2.560547,2.56054685 -6.5361326,2.56054685 -5.4130859,0 -5.4130859,-6.28906245 0,-2.1113282 0.8085938,-3.4814454 0.8310546,-1.3925779 2.6279296,-2.1113279 1.796875,-0.741211 5.2109371,-0.808594 l 3.166993,-0.08984 v -3.301758 q 0,-2.17871 -0.808594,-3.211914 -0.786133,-1.033203 -2.448242,-1.033203 -2.2460941,0 -4.1103519,1.055664 l -0.7636719,2.62793 H 4.0429687 v -4.604492 q 3.6386719,-0.786133 6.4013673,-0.786133 z m 2.987305,10.826172 -2.942383,0.08984 q -3.0097658,0.112304 -4.0878908,1.1679684 -1.0556641,1.0556641 -1.0556641,3.5263672 0,3.953125 3.2119141,3.953125 1.5273438,0 2.6279298,-0.336914 1.123047,-0.359375 2.246094,-0.8984375 z"
         id="path13827" />
    </g>
    <g
       aria-label="c"
       transform="rotate(-23.39,2899.9575,-1678.1952)"
       id="text90"
       class="cls-2"
       style="font-size:46px;font-family:TimesNewRomanPSMT, 'Times New Roman';fill:#1a1a1a">
      <path
         d="M 19.001953,-1.2802734 Q 17.901367,-0.47167969 15.969727,0 q -1.931641,0.44921875 -3.953125,0.44921875 -10.2646489,0 -10.2646489,-11.16308575 0,-5.278321 2.6054688,-8.108399 2.6279297,-2.852539 7.5019531,-2.852539 3.032227,0 6.625977,0.696289 v 5.884766 H 17.25 l -0.96582,-3.728516 q -1.864258,-1.055664 -4.469727,-1.055664 -6.0195311,0 -6.0195311,9.164063 0,4.7617186 1.8193359,6.8056639 1.8417969,2.0214844 5.6826172,2.0214844 3.279297,0 5.705078,-0.741211 z"
         id="path13830" />
    </g>
    <g
       aria-label="h"
       transform="rotate(-32.49,2184.4006,-1093.226)"
       id="text94"
       class="cls-2"
       style="font-size:46px;font-family:TimesNewRomanPSMT, 'Times New Roman';fill:#1a1a1a">
      <path
         d="m 7.3222656,-22.775391 q 0,2.335938 -0.1572265,3.369141 1.6171875,-0.920898 3.6611329,-1.594727 2.066406,-0.673828 3.481445,-0.673828 2.740235,0 4.132813,1.594727 1.392578,1.594726 1.392578,4.626953 v 13.8808594 l 2.560547,0.5615234 V 0 h -9.09668 v -1.0107422 l 2.807617,-0.5615234 V -15.183594 q 0,-3.863281 -3.728515,-3.863281 -2.111329,0 -5.0537114,0.651367 v 16.8232424 l 2.8525394,0.5615234 V 0 H 0.92089844 V -1.0107422 L 3.59375,-1.5722656 V -30.367187 L 0.44921875,-30.90625 v -1.010742 H 7.3222656 Z"
         id="path13833" />
    </g>
    <g
       aria-label="h"
       transform="rotate(-42,1761.0095,-749.54815)"
       id="text98"
       class="cls-2"
       style="font-size:46px;font-family:TimesNewRomanPSMT, 'Times New Roman';fill:#1a1a1a">
      <path
         d="m 7.3222656,-22.775391 q 0,2.335938 -0.1572265,3.369141 1.6171875,-0.920898 3.6611329,-1.594727 2.066406,-0.673828 3.481445,-0.673828 2.740235,0 4.132813,1.594727 1.392578,1.594726 1.392578,4.626953 v 13.8808594 l 2.560547,0.5615234 V 0 h -9.09668 v -1.0107422 l 2.807617,-0.5615234 V -15.183594 q 0,-3.863281 -3.728515,-3.863281 -2.111329,0 -5.0537114,0.651367 v 16.8232424 l 2.8525394,0.5615234 V 0 H 0.92089844 V -1.0107422 L 3.59375,-1.5722656 V -30.367187 L 0.44921875,-30.90625 v -1.010742 H 7.3222656 Z"
         id="path13836" />
    </g>
    <g
       aria-label="a"
       transform="rotate(-51.01,1499.7054,-539.41876)"
       id="text102"
       class="cls-2"
       style="font-size:46px;font-family:TimesNewRomanPSMT, 'Times New Roman';fill:#1a1a1a">
      <path
         d="m 10.444336,-21.584961 q 3.458984,0 5.076172,1.415039 1.639648,1.415039 1.639648,4.334961 v 14.2626954 l 2.62793,0.5615234 V 0 h -5.794922 l -0.426758,-2.1113281 q -2.560547,2.56054685 -6.5361326,2.56054685 -5.4130859,0 -5.4130859,-6.28906245 0,-2.1113282 0.8085938,-3.4814454 0.8310546,-1.3925779 2.6279296,-2.1113279 1.796875,-0.741211 5.2109371,-0.808594 l 3.166993,-0.08984 v -3.301758 q 0,-2.17871 -0.808594,-3.211914 -0.786133,-1.033203 -2.448242,-1.033203 -2.2460941,0 -4.1103519,1.055664 l -0.7636719,2.62793 H 4.0429687 v -4.604492 q 3.6386719,-0.786133 6.4013673,-0.786133 z m 2.987305,10.826172 -2.942383,0.08984 q -3.0097658,0.112304 -4.0878908,1.1679684 -1.0556641,1.0556641 -1.0556641,3.5263672 0,3.953125 3.2119141,3.953125 1.5273438,0 2.6279298,-0.336914 1.123047,-0.359375 2.246094,-0.8984375 z"
         id="path13839" />
    </g>
    <g
       aria-label="l"
       transform="rotate(-58.23,1343.9337,-417.70757)"
       id="text106"
       class="cls-2"
       style="font-size:46px;font-family:TimesNewRomanPSMT, 'Times New Roman';fill:#1a1a1a">
      <path
         d="m 8.2431641,-1.5722656 3.6162109,0.5615234 V 0 H 0.92089844 V -1.0107422 L 4.5146484,-1.5722656 V -30.367187 L 0.92089844,-30.90625 v -1.010742 H 8.2431641 Z"
         id="path13842" />
    </g>
    <g
       aria-label="t"
       transform="rotate(-64.09,1242.6017,-334.81961)"
       id="text110"
       class="cls-2"
       style="font-size:46px;font-family:TimesNewRomanPSMT, 'Times New Roman';fill:#1a1a1a">
      <path
         d="m 7.5019531,0.44921875 q -2.15625,0 -3.234375,-1.28027344 Q 3.2119141,-2.1113281 3.2119141,-4.4248047 V -19.226562 H 0.44921875 v -1.010743 l 2.80761715,-0.875976 2.2685547,-4.78418 h 1.4150391 v 4.78418 h 4.8291013 v 1.886719 H 6.9404297 v 14.3974604 q 0,1.459961 0.6513672,2.2011719 0.6738281,0.741211 1.7519531,0.741211 1.302734,0 3.166992,-0.3593751 v 1.45996099 q -0.786133,0.5390625 -2.268554,0.87597656 -1.4824224,0.359375 -2.7402349,0.359375 z"
         id="path13845" />
    </g>
    <g
       aria-label="i"
       transform="rotate(-69.99,1156.0828,-263.95455)"
       id="text114"
       class="cls-2"
       style="font-size:46px;font-family:TimesNewRomanPSMT, 'Times New Roman';fill:#1a1a1a">
      <path
         d="m 8.5126953,-28.008789 q 0,0.988281 -0.71875,1.707031 -0.71875,0.71875 -1.7294922,0.71875 -0.9882812,0 -1.7070312,-0.71875 -0.71875,-0.71875 -0.71875,-1.707031 0,-1.010742 0.71875,-1.729492 0.71875,-0.71875 1.7070312,-0.71875 1.0107422,0 1.7294922,0.71875 0.71875,0.71875 0.71875,1.729492 z M 8.2880859,-1.5722656 11.904297,-1.0107422 V 0 H 0.96582031 V -1.0107422 L 4.5595703,-1.5722656 V -19.541016 l -2.9873047,-0.561523 v -1.010742 h 6.7158203 z"
         id="path13848" />
    </g>
    <g
       aria-label="g"
       transform="rotate(-77.75,1062.4812,-182.00768)"
       id="text118"
       class="cls-2"
       style="font-size:46px;font-family:TimesNewRomanPSMT, 'Times New Roman';fill:#1a1a1a">
      <path
         d="m 19.541016,-14.442383 q 0,3.638672 -2.178711,5.5029299 -2.178711,1.8642578 -6.266602,1.8642578 -1.8417967,0 -3.4140624,-0.3369141 l -1.415039,2.9423828 q 0.067383,0.381836 0.8759765,0.71875 0.8085938,0.3369141 2.0214844,0.3369141 h 6.2441405 q 3.414063,0 5.053711,1.4824219 1.662109,1.48242185 1.662109,4.0878906 0,2.3583984 -1.325195,4.1103516 -1.302734,1.7519531 -3.84082,2.6953125 -2.538086,0.9658203 -6.154297,0.9658203 -4.3125001,0 -6.5810548,-1.3251953 -2.2460937,-1.3251954 -2.2460937,-3.7734375 0,-1.1904297 0.8085938,-2.3583985 Q 3.59375,1.3251953 5.75,-0.22460938 4.4697266,-0.65136719 3.59375,-1.6845703 2.7177734,-2.7177734 2.7177734,-3.9082031 L 6.2666016,-7.90625 q -3.5488282,-1.6621094 -3.5488282,-6.536133 0,-3.458984 2.178711,-5.345703 2.2011718,-1.886719 6.3789066,-1.886719 0.831054,0 2.133789,0.179688 1.302734,0.157226 1.999023,0.381836 l 4.963867,-2.493164 0.786133,0.96582 -3.12207,3.234375 q 1.504883,1.68457 1.504883,4.963867 z M 18.620117,2.8525391 q 0,-1.2802735 -0.786133,-1.99902347 Q 17.047852,0.13476562 15.453125,0.13476562 H 7.2773437 Q 6.3339844,0.94335938 5.7275391,2.1787109 5.1435547,3.4365234 5.1435547,4.5146484 q 0,1.9316407 1.3925781,2.7626953 1.3925781,0.8535157 4.2675782,0.8535157 3.750977,0 5.772461,-1.3925782 2.043945,-1.3925781 2.043945,-3.8857421 z M 11.140625,-8.7822266 q 2.448242,0 3.458984,-1.3925784 1.033204,-1.415039 1.033204,-4.267578 0,-2.987304 -1.055665,-4.245117 -1.055664,-1.280273 -3.391601,-1.280273 -2.3583986,0 -3.4589845,1.280273 -1.1005859,1.280273 -1.1005859,4.245117 0,2.964844 1.078125,4.3125 1.078125,1.3476564 3.4365234,1.3476564 z"
         id="path13851" />
    </g>
    <g
       aria-label="*"
       transform="rotate(-87.29,964.174,-102.18719)"
       id="text122"
       class="cls-2"
       style="font-size:46px;font-family:TimesNewRomanPSMT, 'Times New Roman';fill:#1a1a1a">
      <path
         d="m 2.2460938,-23.920898 1.4375,-3.211914 7.0751952,4.357421 -0.9658202,-7.344726 h 3.5039062 l -1.055664,7.344726 7.120117,-4.267578 1.4375,3.166992 -7.457031,2.201172 7.457031,2.178711 -1.4375,3.166992 -7.120117,-4.222656 1.055664,7.299805 H 9.7929688 l 0.9658202,-7.367188 -7.0751952,4.379883 -1.4375,-3.211914 7.3671875,-2.223633 z"
         id="path13854" />
    </g>
    <g
       aria-label="klimagerecht*feministisch"
       transform="rotate(-90,929.895,-91.505)"
       id="text178"
       class="cls-2"
       style="font-size:46px;font-family:TimesNewRomanPSMT, 'Times New Roman';fill:#1a1a1a">
      <path
         d="m 22.666562,-10.174805 8.647461,-9.321289 -2.201172,-0.606445 v -1.010742 h 7.457031 v 1.010742 l -2.627929,0.516602 -6.019532,6.154296 7.726563,11.9042973 L 37.94,-1.0107422 V 0 h -8.647461 v -1.0107422 l 1.93164,-0.5615234 -5.794922,-9.0966794 -2.762695,3.0322263 v 6.0644531 l 2.246094,0.5615234 V 0 h -8.647461 v -1.0107422 l 2.672851,-0.5615234 V -30.367187 l -3.12207,-0.539063 v -1.010742 h 6.850586 z"
         id="path13857" />
      <path
         d="m 49.653164,-1.5722656 3.616211,0.5615234 V 0 H 42.330898 v -1.0107422 l 3.59375,-0.5615234 V -30.367187 l -3.59375,-0.539063 v -1.010742 h 7.322266 z"
         id="path13859" />
      <path
         d="m 66.152695,-28.008789 q 0,0.988281 -0.71875,1.707031 -0.71875,0.71875 -1.729492,0.71875 -0.988282,0 -1.707032,-0.71875 -0.71875,-0.71875 -0.71875,-1.707031 0,-1.010742 0.71875,-1.729492 0.71875,-0.71875 1.707032,-0.71875 1.010742,0 1.729492,0.71875 0.71875,0.71875 0.71875,1.729492 z m -0.22461,26.4365234 3.616211,0.5615234 V 0 H 58.60582 v -1.0107422 l 3.59375,-0.5615234 V -19.541016 l -2.987305,-0.561523 v -1.010742 h 6.71582 z"
         id="path13861" />
      <path
         d="m 81.192268,-19.40625 q 1.684571,-0.96582 3.571289,-1.617187 1.886719,-0.651368 3.324219,-0.651368 1.549805,0 2.852539,0.583985 1.325196,0.583984 1.976563,1.864258 1.729492,-0.965821 4.042968,-1.707032 2.335938,-0.741211 3.863284,-0.741211 5.39062,0 5.39062,6.22168 v 13.8808594 l 2.71778,0.5615234 V 0 h -9.590824 v -1.0107422 l 3.144534,-0.5615234 V -15.048828 q 0,-3.863281 -3.593753,-3.863281 -0.583984,0 -1.370117,0.08984 -0.763672,0.08984 -1.549805,0.202149 -0.763672,0.112305 -1.482422,0.269531 -0.696289,0.134766 -1.167968,0.224609 0.381836,1.212891 0.381836,2.672852 v 13.8808594 l 3.166992,0.5615234 V 0 H 86.852425 v -1.0107422 l 3.12207,-0.5615234 V -15.048828 q 0,-1.864258 -0.96582,-2.852539 -0.94336,-1.010742 -2.852539,-1.010742 -1.976563,0 -4.918946,0.651367 v 16.6884764 l 3.166992,0.5615234 V 0 h -9.568359 v -1.0107422 l 2.672852,-0.5615234 V -19.541016 l -2.672852,-0.561523 v -1.010742 h 6.176758 z"
         id="path13863" />
      <path
         d="m 123.52434,-21.584961 q 3.45898,0 5.07617,1.415039 1.63965,1.415039 1.63965,4.334961 v 14.2626954 l 2.62793,0.5615234 V 0 h -5.79492 l -0.42676,-2.1113281 q -2.56055,2.56054685 -6.53613,2.56054685 -5.41309,0 -5.41309,-6.28906245 0,-2.1113282 0.80859,-3.4814454 0.83106,-1.3925779 2.62793,-2.1113279 1.79688,-0.741211 5.21094,-0.808594 l 3.16699,-0.08984 v -3.301758 q 0,-2.17871 -0.80859,-3.211914 -0.78613,-1.033203 -2.44824,-1.033203 -2.2461,0 -4.11036,1.055664 l -0.76367,2.62793 h -1.25781 v -4.604492 q 3.63867,-0.786133 6.40137,-0.786133 z m 2.9873,10.826172 -2.94238,0.08984 q -3.00977,0.112304 -4.08789,1.1679684 -1.05567,1.0556641 -1.05567,3.5263672 0,3.953125 3.21192,3.953125 1.52734,0 2.62793,-0.336914 1.12305,-0.359375 2.24609,-0.8984375 z"
         id="path13865" />
      <path
         d="m 156.50102,-14.442383 q 0,3.638672 -2.17871,5.5029299 -2.17871,1.8642578 -6.2666,1.8642578 -1.8418,0 -3.41406,-0.3369141 l -1.41504,2.9423828 q 0.0674,0.381836 0.87597,0.71875 0.8086,0.3369141 2.02149,0.3369141 h 6.24414 q 3.41406,0 5.05371,1.4824219 1.66211,1.48242185 1.66211,4.0878906 0,2.3583984 -1.3252,4.1103516 -1.30273,1.7519531 -3.84082,2.6953125 -2.53808,0.9658203 -6.15429,0.9658203 -4.3125,0 -6.58106,-1.3251953 -2.24609,-1.3251954 -2.24609,-3.7734375 0,-1.1904297 0.80859,-2.3583985 0.8086,-1.1455078 2.96485,-2.69531248 -1.28028,-0.42675781 -2.15625,-1.45996092 -0.87598,-1.0332031 -0.87598,-2.2236328 l 3.54883,-3.9980469 q -3.54883,-1.6621094 -3.54883,-6.536133 0,-3.458984 2.17871,-5.345703 2.20117,-1.886719 6.37891,-1.886719 0.83105,0 2.13379,0.179688 1.30273,0.157226 1.99902,0.381836 l 4.96387,-2.493164 0.78613,0.96582 -3.12207,3.234375 q 1.50488,1.68457 1.50488,4.963867 z m -0.9209,17.2949221 q 0,-1.2802735 -0.78613,-1.99902347 -0.78613,-0.71875001 -2.38086,-0.71875001 h -8.17578 q -0.94336,0.80859376 -1.5498,2.04394528 -0.58399,1.2578125 -0.58399,2.3359375 0,1.9316407 1.39258,2.7626953 1.39258,0.8535157 4.26758,0.8535157 3.75097,0 5.77246,-1.3925782 2.04394,-1.3925781 2.04394,-3.8857421 z m -7.47949,-11.6347657 q 2.44824,0 3.45899,-1.3925784 1.0332,-1.415039 1.0332,-4.267578 0,-2.987304 -1.05566,-4.245117 -1.05567,-1.280273 -3.39161,-1.280273 -2.35839,0 -3.45898,1.280273 -1.10059,1.280273 -1.10059,4.245117 0,2.964844 1.07813,4.3125 1.07812,1.3476564 3.43652,1.3476564 z"
         id="path13867" />
      <path
         d="m 169.25984,-10.624023 v 0.404296 q 0,3.0996098 0.67383,4.829102 0.69629,1.7070312 2.11133,2.6054687 1.4375,0.8984376 3.75097,0.8984376 1.2129,0 2.875,-0.2021485 1.66211,-0.2021484 2.74024,-0.4492187 v 1.2578125 q -1.07813,0.69628903 -2.94238,1.21289059 -1.8418,0.51660156 -3.77344,0.51660156 -4.91895,0 -7.20996,-2.65039065 -2.26856,-2.6503906 -2.26856,-8.5126951 0,-5.525391 2.31348,-8.243164 2.31348,-2.717774 6.60352,-2.717774 8.10839,0 8.10839,9.208985 v 1.841797 z m 4.87403,-9.253907 q -2.33594,0 -3.59375,1.886719 -1.23536,1.886719 -1.23536,5.570313 h 9.0293 q 0,-4.020508 -1.0332,-5.727539 -1.03321,-1.729493 -3.16699,-1.729493 z"
         id="path13869" />
      <path
         d="m 202.20406,-21.674805 v 5.705078 h -0.96582 l -1.30274,-2.470703 q -1.12305,0 -2.67285,0.314453 -1.52734,0.291993 -2.65039,0.786133 v 15.7675784 l 3.61621,0.5615234 V 0 h -10.01758 v -1.0107422 l 2.67285,-0.5615234 V -19.541016 l -2.67285,-0.561523 v -1.010742 h 6.1543 l 0.20215,2.627929 q 1.34765,-1.123046 3.63867,-2.15625 2.31348,-1.033203 3.66113,-1.033203 z"
         id="path13871" />
      <path
         d="m 211.88985,-10.624023 v 0.404296 q 0,3.0996098 0.67382,4.829102 0.69629,1.7070312 2.11133,2.6054687 1.4375,0.8984376 3.75098,0.8984376 1.21289,0 2.875,-0.2021485 1.66211,-0.2021484 2.74023,-0.4492187 v 1.2578125 q -1.07812,0.69628903 -2.94238,1.21289059 -1.8418,0.51660156 -3.77344,0.51660156 -4.91894,0 -7.20996,-2.65039065 -2.26855,-2.6503906 -2.26855,-8.5126951 0,-5.525391 2.31347,-8.243164 2.31348,-2.717774 6.60352,-2.717774 8.1084,0 8.1084,9.208985 v 1.841797 z m 4.87402,-9.253907 q -2.33594,0 -3.59375,1.886719 -1.23535,1.886719 -1.23535,5.570313 h 9.0293 q 0,-4.020508 -1.03321,-5.727539 -1.0332,-1.729493 -3.16699,-1.729493 z"
         id="path13873" />
      <path
         d="M 248.92195,-1.2802734 Q 247.82137,-0.47167969 245.88972,0 q -1.93164,0.44921875 -3.95312,0.44921875 -10.26465,0 -10.26465,-11.16308575 0,-5.278321 2.60547,-8.108399 2.62793,-2.852539 7.50195,-2.852539 3.03223,0 6.62598,0.696289 v 5.884766 H 247.17 l -0.96582,-3.728516 q -1.86426,-1.055664 -4.46973,-1.055664 -6.01953,0 -6.01953,9.164063 0,4.7617186 1.81934,6.8056639 1.84179,2.0214844 5.68261,2.0214844 3.2793,0 5.70508,-0.741211 z"
         id="path13875" />
      <path
         d="m 261.13226,-22.775391 q 0,2.335938 -0.15722,3.369141 1.61718,-0.920898 3.66113,-1.594727 2.06641,-0.673828 3.48144,-0.673828 2.74024,0 4.13282,1.594727 1.39258,1.594726 1.39258,4.626953 v 13.8808594 l 2.56054,0.5615234 V 0 h -9.09668 v -1.0107422 l 2.80762,-0.5615234 V -15.183594 q 0,-3.863281 -3.72852,-3.863281 -2.11132,0 -5.05371,0.651367 v 16.8232424 l 2.85254,0.5615234 V 0 h -9.2539 v -1.0107422 l 2.67285,-0.5615234 V -30.367187 l -3.14453,-0.539063 v -1.010742 h 6.87304 z"
         id="path13877" />
      <path
         d="m 287.75195,0.44921875 q -2.15625,0 -3.23437,-1.28027344 -1.05567,-1.28027341 -1.05567,-3.59375001 V -19.226562 h -2.76269 v -1.010743 l 2.80762,-0.875976 2.26855,-4.78418 h 1.41504 v 4.78418 h 4.8291 v 1.886719 h -4.8291 v 14.3974604 q 0,1.459961 0.65137,2.2011719 0.67382,0.741211 1.75195,0.741211 1.30273,0 3.16699,-0.3593751 v 1.45996099 q -0.78613,0.5390625 -2.26855,0.87597656 -1.48242,0.359375 -2.74024,0.359375 z"
         id="path13879" />
      <path
         d="m 298.73608,-23.920898 1.4375,-3.211914 7.0752,4.357421 -0.96582,-7.344726 h 3.50391 l -1.05567,7.344726 7.12012,-4.267578 1.4375,3.166992 -7.45703,2.201172 7.45703,2.178711 -1.4375,3.166992 -7.12012,-4.222656 1.05567,7.299805 h -3.50391 l 0.96582,-7.367188 -7.0752,4.379883 -1.4375,-3.211914 7.36719,-2.223633 z"
         id="path13881" />
      <path
         d="m 342.94373,-19.226562 h -3.63868 v -1.100586 l 3.63868,-0.875977 v -1.482422 q 0,-4.671875 1.84179,-7.1875 1.86426,-2.515625 5.21094,-2.515625 1.72949,0 3.21191,0.426758 v 4.604492 h -1.10058 l -1.01074,-2.762695 q -0.76368,-0.47168 -1.8418,-0.47168 -1.41504,0 -1.99902,1.257813 -0.58399,1.257812 -0.58399,4.716797 v 3.503906 h 5.61524 v 1.886719 h -5.61524 v 17.4746089 l 4.55957,0.7412109 V 0 h -11.41015 v -1.0107422 l 3.12207,-0.7412109 z"
         id="path13883" />
      <path
         d="m 362.48984,-10.624023 v 0.404296 q 0,3.0996098 0.67383,4.829102 0.69628,1.7070312 2.11132,2.6054687 1.4375,0.8984376 3.75098,0.8984376 1.21289,0 2.875,-0.2021485 1.66211,-0.2021484 2.74023,-0.4492187 v 1.2578125 q -1.07812,0.69628903 -2.94238,1.21289059 -1.84179,0.51660156 -3.77344,0.51660156 -4.91894,0 -7.20996,-2.65039065 -2.26855,-2.6503906 -2.26855,-8.5126951 0,-5.525391 2.31348,-8.243164 2.31347,-2.717774 6.60351,-2.717774 8.1084,0 8.1084,9.208985 v 1.841797 z m 4.87402,-9.253907 q -2.33594,0 -3.59375,1.886719 -1.23535,1.886719 -1.23535,5.570313 h 9.0293 q 0,-4.020508 -1.03321,-5.727539 -1.0332,-1.729493 -3.16699,-1.729493 z"
         id="path13885" />
      <path
         d="m 387.86227,-19.40625 q 1.68457,-0.96582 3.57129,-1.617187 1.88672,-0.651368 3.32422,-0.651368 1.54981,0 2.85254,0.583985 1.3252,0.583984 1.97656,1.864258 1.7295,-0.965821 4.04297,-1.707032 2.33594,-0.741211 3.86328,-0.741211 5.39063,0 5.39063,6.22168 v 13.8808594 l 2.71777,0.5615234 V 0 h -9.59082 v -1.0107422 l 3.14453,-0.5615234 V -15.048828 q 0,-3.863281 -3.59375,-3.863281 -0.58398,0 -1.37011,0.08984 -0.76368,0.08984 -1.54981,0.202149 -0.76367,0.112305 -1.48242,0.269531 -0.69629,0.134766 -1.16797,0.224609 0.38184,1.212891 0.38184,2.672852 v 13.8808594 l 3.16699,0.5615234 V 0 h -10.01758 v -1.0107422 l 3.12207,-0.5615234 V -15.048828 q 0,-1.864258 -0.96582,-2.852539 -0.94336,-1.010742 -2.85254,-1.010742 -1.97656,0 -4.91894,0.651367 v 16.6884764 l 3.16699,0.5615234 V 0 h -9.56836 v -1.0107422 l 2.67285,-0.5615234 V -19.541016 l -2.67285,-0.561523 v -1.010742 h 6.17676 z"
         id="path13887" />
      <path
         d="m 428.29269,-28.008789 q 0,0.988281 -0.71875,1.707031 -0.71875,0.71875 -1.72949,0.71875 -0.98828,0 -1.70703,-0.71875 -0.71875,-0.71875 -0.71875,-1.707031 0,-1.010742 0.71875,-1.729492 0.71875,-0.71875 1.70703,-0.71875 1.01074,0 1.72949,0.71875 0.71875,0.71875 0.71875,1.729492 z m -0.22461,26.4365234 3.61622,0.5615234 V 0 h -10.93848 v -1.0107422 l 3.59375,-0.5615234 V -19.541016 l -2.98731,-0.561523 v -1.010742 h 6.71582 z"
         id="path13889" />
      <path
         d="m 443.27734,-19.40625 q 1.7295,-0.988281 3.6836,-1.617187 1.9541,-0.651368 3.25683,-0.651368 2.74024,0 4.13282,1.594727 1.39257,1.594726 1.39257,4.626953 v 13.8808594 l 2.56055,0.5615234 V 0 h -9.09668 v -1.0107422 l 2.80762,-0.5615234 V -15.048828 q 0,-1.864258 -0.9209,-2.919922 -0.89844,-1.078125 -2.80762,-1.078125 -2.02148,0 -4.96386,0.651367 v 16.8232424 l 2.85253,0.5615234 V 0 h -9.11914 v -1.0107422 l 2.53809,-0.5615234 V -19.541016 l -2.53809,-0.561523 v -1.010742 h 6.01954 z"
         id="path13891" />
      <path
         d="m 470.97269,-28.008789 q 0,0.988281 -0.71875,1.707031 -0.71875,0.71875 -1.7295,0.71875 -0.98828,0 -1.70703,-0.71875 -0.71875,-0.71875 -0.71875,-1.707031 0,-1.010742 0.71875,-1.729492 0.71875,-0.71875 1.70703,-0.71875 1.01075,0 1.7295,0.71875 0.71875,0.71875 0.71875,1.729492 z m -0.22461,26.4365234 3.61621,0.5615234 V 0 h -10.93848 v -1.0107422 l 3.59375,-0.5615234 V -19.541016 l -2.9873,-0.561523 v -1.010742 h 6.71582 z"
         id="path13893" />
      <path
         d="m 494.92926,-5.9296875 q 0,3.1445312 -1.99902,4.7617188 -1.97657,1.61718745 -5.86231,1.61718745 -1.57226,0 -3.48144,-0.33691406 -1.88672,-0.31445313 -2.96485,-0.71875 V -5.7949219 h 1.01075 l 1.10058,2.9423828 q 1.68457,1.5273438 4.37988,1.5273438 4.35743,0 4.35743,-3.7285156 0,-2.7402344 -3.43653,-3.9082032 l -1.99902,-0.6513672 q -2.26856,-0.7412107 -3.30176,-1.5048827 -1.0332,-0.763672 -1.59473,-1.864258 -0.56152,-1.123047 -0.56152,-2.695312 0,-2.785157 1.88672,-4.379883 1.90918,-1.617188 5.14355,-1.617188 2.31348,0 5.79493,0.696289 v 4.604493 h -1.05567 l -0.94336,-2.448243 q -1.19043,-1.055664 -3.75097,-1.055664 -1.81934,0 -2.78516,0.898438 -0.94336,0.898437 -0.94336,2.425781 0,1.280273 0.85352,2.15625 0.87597,0.875977 2.62793,1.459961 3.30175,1.123047 4.3125,1.639648 1.01074,0.516602 1.70703,1.280274 0.71875,0.7412108 1.10058,1.7070311 0.4043,0.9658203 0.4043,2.3808594 z"
         id="path13895" />
      <path
         d="m 507.53195,0.44921875 q -2.15625,0 -3.23437,-1.28027344 -1.05567,-1.28027341 -1.05567,-3.59375001 V -19.226562 h -2.76269 v -1.010743 l 2.80761,-0.875976 2.26856,-4.78418 h 1.41504 v 4.78418 h 4.8291 v 1.886719 h -4.8291 v 14.3974604 q 0,1.459961 0.65137,2.2011719 0.67382,0.741211 1.75195,0.741211 1.30273,0 3.16699,-0.3593751 v 1.45996099 q -0.78613,0.5390625 -2.26855,0.87597656 -1.48243,0.359375 -2.74024,0.359375 z"
         id="path13897" />
      <path
         d="m 524.78271,-28.008789 q 0,0.988281 -0.71875,1.707031 -0.71875,0.71875 -1.72949,0.71875 -0.98828,0 -1.70703,-0.71875 -0.71875,-0.71875 -0.71875,-1.707031 0,-1.010742 0.71875,-1.729492 0.71875,-0.71875 1.70703,-0.71875 1.01074,0 1.72949,0.71875 0.71875,0.71875 0.71875,1.729492 z m -0.2246,26.4365234 3.61621,0.5615234 V 0 h -10.93848 v -1.0107422 l 3.59375,-0.5615234 V -19.541016 l -2.9873,-0.561523 v -1.010742 h 6.71582 z"
         id="path13899" />
      <path
         d="m 548.73926,-5.9296875 q 0,3.1445312 -1.99903,4.7617188 -1.97656,1.61718745 -5.8623,1.61718745 -1.57227,0 -3.48145,-0.33691406 -1.88671,-0.31445313 -2.96484,-0.71875 V -5.7949219 h 1.01074 l 1.10059,2.9423828 q 1.68457,1.5273438 4.37988,1.5273438 4.35742,0 4.35742,-3.7285156 0,-2.7402344 -3.43652,-3.9082032 l -1.99902,-0.6513672 q -2.26856,-0.7412107 -3.30176,-1.5048827 -1.0332,-0.763672 -1.59473,-1.864258 -0.56152,-1.123047 -0.56152,-2.695312 0,-2.785157 1.88672,-4.379883 1.90918,-1.617188 5.14355,-1.617188 2.31348,0 5.79492,0.696289 v 4.604493 h -1.05566 l -0.94336,-2.448243 q -1.19043,-1.055664 -3.75098,-1.055664 -1.81933,0 -2.78515,0.898438 -0.94336,0.898437 -0.94336,2.425781 0,1.280273 0.85351,2.15625 0.87598,0.875977 2.62793,1.459961 3.30176,1.123047 4.3125,1.639648 1.01075,0.516602 1.70703,1.280274 0.71875,0.7412108 1.10059,1.7070311 0.4043,0.9658203 0.4043,2.3808594 z"
         id="path13901" />
      <path
         d="M 572.85193,-1.2802734 Q 571.75134,-0.47167969 569.8197,0 q -1.93164,0.44921875 -3.95312,0.44921875 -10.26465,0 -10.26465,-11.16308575 0,-5.278321 2.60547,-8.108399 2.62793,-2.852539 7.50195,-2.852539 3.03223,0 6.62598,0.696289 v 5.884766 h -1.23535 l -0.96582,-3.728516 q -1.86426,-1.055664 -4.46973,-1.055664 -6.01953,0 -6.01953,9.164063 0,4.7617186 1.81933,6.8056639 1.8418,2.0214844 5.68262,2.0214844 3.2793,0 5.70508,-0.741211 z"
         id="path13903" />
      <path
         d="m 585.05225,-22.775391 q 0,2.335938 -0.15723,3.369141 1.61719,-0.920898 3.66113,-1.594727 2.06641,-0.673828 3.48145,-0.673828 2.74023,0 4.13281,1.594727 1.39258,1.594726 1.39258,4.626953 v 13.8808594 l 2.56055,0.5615234 V 0 h -9.09668 v -1.0107422 l 2.80761,-0.5615234 V -15.183594 q 0,-3.863281 -3.72851,-3.863281 -2.11133,0 -5.05371,0.651367 v 16.8232424 l 2.85254,0.5615234 V 0 h -9.25391 v -1.0107422 l 2.67285,-0.5615234 V -30.367187 l -3.14453,-0.539063 v -1.010742 h 6.87305 z"
         id="path13905" />
    </g>
    <g
       aria-label="*"
       transform="rotate(-94.07,619.36641,-359.34018)"
       id="text182"
       class="cls-2"
       style="font-size:46px;font-family:TimesNewRomanPSMT, 'Times New Roman';fill:#1a1a1a">
      <path
         d="m 2.2460938,-23.920898 1.4375,-3.211914 7.0751952,4.357421 -0.9658202,-7.344726 h 3.5039062 l -1.055664,7.344726 7.120117,-4.267578 1.4375,3.166992 -7.457031,2.201172 7.457031,2.178711 -1.4375,3.166992 -7.120117,-4.222656 1.055664,7.299805 H 9.7929688 l 0.9658202,-7.367188 -7.0751952,4.379883 -1.4375,-3.211914 7.3671875,-2.223633 z"
         id="path13908" />
    </g>
    <text
       class="cls-2"
       transform="rotate(-101.53,592.82514,-313.96616)"
       id="text186"><tspan
         x="0"
         y="0"
         id="tspan184" /></text>
    <g
       aria-label="d"
       transform="rotate(-109.07,574.30752,-268.20185)"
       id="text190"
       class="cls-2"
       style="font-size:46px;font-family:TimesNewRomanPSMT, 'Times New Roman';fill:#1a1a1a">
      <path
         d="m 16.239258,-1.5722656 q -2.538086,2.02148435 -5.929688,2.02148435 -8.6474606,0 -8.6474606,-10.80371075 0,-5.547852 2.4482422,-8.422852 2.4482421,-2.897461 7.2099614,-2.897461 2.425781,0 4.918945,0.516602 -0.134766,-0.741211 -0.134766,-3.728516 v -5.480468 l -3.548828,-0.539063 v -1.010742 h 7.277344 v 30.3447264 l 2.605469,0.5615234 V 0 H 16.508789 Z M 5.7050781,-10.354492 q 0,4.2675779 1.4375,6.3789061 1.4375,2.0888672 4.4023439,2.0888672 2.538086,0 4.55957,-0.8759766 V -19.451172 q -1.999023,-0.381836 -4.55957,-0.381836 -5.8398439,0 -5.8398439,9.478516 z"
         id="path13911" />
    </g>
    <g
       aria-label="i"
       transform="rotate(-116.82,551.73021,-229.21183)"
       id="text194"
       class="cls-2"
       style="font-size:46px;font-family:TimesNewRomanPSMT, 'Times New Roman';fill:#1a1a1a">
      <path
         d="m 8.5126953,-28.008789 q 0,0.988281 -0.71875,1.707031 -0.71875,0.71875 -1.7294922,0.71875 -0.9882812,0 -1.7070312,-0.71875 -0.71875,-0.71875 -0.71875,-1.707031 0,-1.010742 0.71875,-1.729492 0.71875,-0.71875 1.7070312,-0.71875 1.0107422,0 1.7294922,0.71875 0.71875,0.71875 0.71875,1.729492 z M 8.2880859,-1.5722656 11.904297,-1.0107422 V 0 H 0.96582031 V -1.0107422 L 4.5595703,-1.5722656 V -19.541016 l -2.9873047,-0.561523 v -1.010742 h 6.7158203 z"
         id="path13914" />
    </g>
    <g
       aria-label="v"
       transform="rotate(-124.53,535.89567,-190.54729)"
       id="text198"
       class="cls-2"
       style="font-size:46px;font-family:TimesNewRomanPSMT, 'Times New Roman';fill:#1a1a1a">
      <path
         d="M 12.510742,0.44921875 H 10.848633 L 2.15625,-19.541016 0,-20.102539 v -1.010742 h 9.8378906 v 1.010742 l -3.3466797,0.606445 6.1542971,14.5771487 5.884765,-14.6220707 -3.346679,-0.561523 v -1.010742 H 23 v 1.010742 l -2.021484,0.47168 z"
         id="path13917" />
    </g>
    <g
       aria-label="e"
       transform="rotate(-133.55,515.24318,-150.6551)"
       id="text202"
       class="cls-2"
       style="font-size:46px;font-family:TimesNewRomanPSMT, 'Times New Roman';fill:#1a1a1a">
      <path
         d="m 5.8398437,-10.624023 v 0.404296 q 0,3.0996098 0.6738282,4.829102 0.696289,1.7070312 2.1113281,2.6054687 1.4375,0.8984376 3.750977,0.8984376 1.21289,0 2.875,-0.2021485 1.662109,-0.2021484 2.740234,-0.4492187 v 1.2578125 q -1.078125,0.69628903 -2.942383,1.21289059 -1.841797,0.51660156 -3.773437,0.51660156 -4.9189457,0 -7.2099613,-2.65039065 -2.2685547,-2.6503906 -2.2685547,-8.5126951 0,-5.525391 2.3134766,-8.243164 2.3134765,-2.717774 6.6035154,-2.717774 8.108399,0 8.108399,9.208985 v 1.841797 z m 4.8740233,-9.253907 q -2.3359373,0 -3.5937498,1.886719 -1.2353516,1.886719 -1.2353516,5.570313 h 9.0292974 q 0,-4.020508 -1.033204,-5.727539 -1.033203,-1.729493 -3.166992,-1.729493 z"
         id="path13920" />
    </g>
    <g
       aria-label="r"
       transform="rotate(-141.2,498.033,-119.07202)"
       id="text206"
       class="cls-2"
       style="font-size:46px;font-family:TimesNewRomanPSMT, 'Times New Roman';fill:#1a1a1a">
      <path
         d="m 14.914063,-21.674805 v 5.705078 h -0.965821 l -1.302734,-2.470703 q -1.123047,0 -2.6728517,0.314453 -1.5273438,0.291993 -2.6503907,0.786133 v 15.7675784 l 3.6162114,0.5615234 V 0 H 0.92089844 V -1.0107422 L 3.59375,-1.5722656 V -19.541016 l -2.67285156,-0.561523 v -1.010742 H 7.0751953 l 0.2021484,2.627929 q 1.3476563,-1.123046 3.6386723,-2.15625 2.313476,-1.033203 3.661132,-1.033203 z"
         id="path13923" />
    </g>
    <g
       aria-label="s"
       transform="rotate(-148.41,484.34713,-89.965122)"
       id="text210"
       class="cls-2"
       style="font-size:46px;font-family:TimesNewRomanPSMT, 'Times New Roman';fill:#1a1a1a">
      <path
         d="m 16.239258,-5.9296875 q 0,3.1445312 -1.999024,4.7617188 -1.976562,1.61718745 -5.8623043,1.61718745 -1.5722656,0 -3.4814453,-0.33691406 -1.8867188,-0.31445313 -2.9648438,-0.71875 V -5.7949219 h 1.0107422 l 1.1005859,2.9423828 q 1.6845704,1.5273438 4.3798829,1.5273438 4.3574214,0 4.3574214,-3.7285156 0,-2.7402344 -3.436523,-3.9082032 L 7.3447266,-9.6132813 q -2.2685547,-0.7412107 -3.3017579,-1.5048827 -1.0332031,-0.763672 -1.5947265,-1.864258 -0.5615235,-1.123047 -0.5615235,-2.695312 0,-2.785157 1.8867188,-4.379883 1.9091797,-1.617188 5.1435547,-1.617188 2.3134768,0 5.7949218,0.696289 v 4.604493 H 13.65625 l -0.943359,-2.448243 q -1.19043,-1.055664 -3.7509769,-1.055664 -1.819336,0 -2.7851563,0.898438 -0.9433594,0.898437 -0.9433594,2.425781 0,1.280273 0.8535157,2.15625 0.8759765,0.875977 2.6279297,1.459961 3.3017582,1.123047 4.3125002,1.639648 1.010742,0.516602 1.707031,1.280274 0.71875,0.7412108 1.100586,1.7070311 0.404297,0.9658203 0.404297,2.3808594 z"
         id="path13926" />
    </g>
    <g
       aria-label="*"
       transform="rotate(-157.06,469.17851,-56.337925)"
       id="text214"
       class="cls-2"
       style="font-size:46px;font-family:TimesNewRomanPSMT, 'Times New Roman';fill:#1a1a1a">
      <path
         d="m 2.2460938,-23.920898 1.4375,-3.211914 7.0751952,4.357421 -0.9658202,-7.344726 h 3.5039062 l -1.055664,7.344726 7.120117,-4.267578 1.4375,3.166992 -7.457031,2.201172 7.457031,2.178711 -1.4375,3.166992 -7.120117,-4.222656 1.055664,7.299805 H 9.7929688 l 0.9658202,-7.367188 -7.0751952,4.379883 -1.4375,-3.211914 7.3671875,-2.223633 z"
         id="path13929" />
    </g>
    <text
       class="cls-2"
       transform="rotate(-164.6,452.43563,-28.556173)"
       id="text218"><tspan
         x="0"
         y="0"
         id="tspan216" /></text>
    <g
       aria-label="s"
       transform="rotate(-171.19,442.09676,-4.064373)"
       id="text222"
       class="cls-2"
       style="font-size:46px;font-family:TimesNewRomanPSMT, 'Times New Roman';fill:#1a1a1a">
      <path
         d="m 16.239258,-5.9296875 q 0,3.1445312 -1.999024,4.7617188 -1.976562,1.61718745 -5.8623043,1.61718745 -1.5722656,0 -3.4814453,-0.33691406 -1.8867188,-0.31445313 -2.9648438,-0.71875 V -5.7949219 h 1.0107422 l 1.1005859,2.9423828 q 1.6845704,1.5273438 4.3798829,1.5273438 4.3574214,0 4.3574214,-3.7285156 0,-2.7402344 -3.436523,-3.9082032 L 7.3447266,-9.6132813 q -2.2685547,-0.7412107 -3.3017579,-1.5048827 -1.0332031,-0.763672 -1.5947265,-1.864258 -0.5615235,-1.123047 -0.5615235,-2.695312 0,-2.785157 1.8867188,-4.379883 1.9091797,-1.617188 5.1435547,-1.617188 2.3134768,0 5.7949218,0.696289 v 4.604493 H 13.65625 l -0.943359,-2.448243 q -1.19043,-1.055664 -3.7509769,-1.055664 -1.819336,0 -2.7851563,0.898438 -0.9433594,0.898437 -0.9433594,2.425781 0,1.280273 0.8535157,2.15625 0.8759765,0.875977 2.6279297,1.459961 3.3017582,1.123047 4.3125002,1.639648 1.010742,0.516602 1.707031,1.280274 0.71875,0.7412108 1.100586,1.7070311 0.404297,0.9658203 0.404297,2.3808594 z"
         id="path13932" />
    </g>
    <g
       aria-label="o"
       transform="rotate(-179.07,428.06863,24.697668)"
       id="text226"
       class="cls-2"
       style="font-size:46px;font-family:TimesNewRomanPSMT, 'Times New Roman';fill:#1a1a1a">
      <path
         d="m 21.248047,-10.668945 q 0,11.11816375 -9.882813,11.11816375 -4.7617184,0 -7.1874996,-2.85253905 -2.4257813,-2.8525391 -2.4257813,-8.2656247 0,-5.345703 2.4257813,-8.175782 2.4257812,-2.830078 7.3671876,-2.830078 4.80664,0 7.254883,2.785157 2.448242,2.762695 2.448242,8.220703 z m -4.042969,0 q 0,-4.851563 -1.415039,-7.030274 -1.415039,-2.178711 -4.424805,-2.178711 -2.9423824,0 -4.2675778,2.088868 -1.3027343,2.088867 -1.3027343,7.120117 0,5.0986325 1.3251953,7.2324216 1.3476562,2.1113281 4.2451168,2.1113281 2.964844,0 4.402344,-2.2011719 1.4375,-2.2011719 1.4375,-7.1425778 z"
         id="path13935" />
    </g>
    <g
       aria-label="lidarisch*vielfältig*antira"
       transform="rotate(180,414.515,28.075)"
       id="text286"
       class="cls-2"
       style="font-size:46px;font-family:TimesNewRomanPSMT, 'Times New Roman';fill:#1a1a1a">
      <path
         d="m 8.2431641,-1.5722656 3.6162109,0.5615234 V 0 H 0.92089844 V -1.0107422 L 4.5146484,-1.5722656 V -30.367187 L 0.92089844,-30.90625 v -1.010742 H 8.2431641 Z"
         id="path13938" />
      <path
         d="m 24.722694,-28.008789 q 0,0.988281 -0.71875,1.707031 -0.71875,0.71875 -1.729492,0.71875 -0.988281,0 -1.707031,-0.71875 -0.71875,-0.71875 -0.71875,-1.707031 0,-1.010742 0.71875,-1.729492 0.71875,-0.71875 1.707031,-0.71875 1.010742,0 1.729492,0.71875 0.71875,0.71875 0.71875,1.729492 z m -0.224609,26.4365234 3.616211,0.5615234 V 0 H 17.175819 v -1.0107422 l 3.59375,-0.5615234 V -19.541016 l -2.987304,-0.561523 v -1.010742 h 6.71582 z"
         id="path13940" />
      <path
         d="m 48.699257,-1.5722656 q -2.538086,2.02148435 -5.929688,2.02148435 -8.647461,0 -8.647461,-10.80371075 0,-5.547852 2.448243,-8.422852 2.448242,-2.897461 7.209961,-2.897461 2.425781,0 4.918945,0.516602 -0.134766,-0.741211 -0.134766,-3.728516 v -5.480468 l -3.548828,-0.539063 v -1.010742 h 7.277344 v 30.3447264 l 2.605469,0.5615234 V 0 h -5.929688 z m -10.53418,-8.7822264 q 0,4.2675779 1.4375,6.3789061 1.4375,2.0888672 4.402344,2.0888672 2.538086,0 4.55957,-0.8759766 V -19.451172 q -1.999023,-0.381836 -4.55957,-0.381836 -5.839844,0 -5.839844,9.478516 z"
         id="path13942" />
      <path
         d="m 69.354336,-21.584961 q 3.458984,0 5.076172,1.415039 1.639648,1.415039 1.639648,4.334961 v 14.2626954 l 2.62793,0.5615234 V 0 h -5.794922 l -0.426758,-2.1113281 q -2.560547,2.56054685 -6.536133,2.56054685 -5.413086,0 -5.413086,-6.28906245 0,-2.1113282 0.808594,-3.4814454 0.831055,-1.3925779 2.62793,-2.1113279 1.796875,-0.741211 5.210937,-0.808594 l 3.166992,-0.08984 v -3.301758 q 0,-2.17871 -0.808593,-3.211914 -0.786133,-1.033203 -2.448242,-1.033203 -2.246094,0 -4.110352,1.055664 l -0.763672,2.62793 h -1.257812 v -4.604492 q 3.638671,-0.786133 6.401367,-0.786133 z m 2.987304,10.826172 -2.942382,0.08984 q -3.009766,0.112304 -4.087891,1.1679684 -1.055664,1.0556641 -1.055664,3.5263672 0,3.953125 3.211914,3.953125 1.527344,0 2.62793,-0.336914 1.123047,-0.359375 2.246093,-0.8984375 z"
         id="path13944" />
      <path
         d="m 97.684059,-21.674805 v 5.705078 h -0.96582 l -1.302735,-2.470703 q -1.123046,0 -2.672851,0.314453 -1.527344,0.291993 -2.650391,0.786133 v 15.7675784 l 3.616211,0.5615234 V 0 H 83.690895 v -1.0107422 l 2.672852,-0.5615234 V -19.541016 l -2.672852,-0.561523 v -1.010742 h 6.154297 l 0.202148,2.627929 q 1.347657,-1.123046 3.638672,-2.15625 2.313477,-1.033203 3.661133,-1.033203 z"
         id="path13946" />
      <path
         d="m 110.04269,-28.008789 q 0,0.988281 -0.71875,1.707031 -0.71875,0.71875 -1.72949,0.71875 -0.98828,0 -1.70703,-0.71875 -0.71875,-0.71875 -0.71875,-1.707031 0,-1.010742 0.71875,-1.729492 0.71875,-0.71875 1.70703,-0.71875 1.01074,0 1.72949,0.71875 0.71875,0.71875 0.71875,1.729492 z m -0.22461,26.4365234 3.61622,0.5615234 V 0 h -10.93848 v -1.0107422 l 3.59375,-0.5615234 V -19.541016 l -2.98731,-0.561523 v -1.010742 h 6.71582 z"
         id="path13948" />
      <path
         d="m 134.00925,-5.9296875 q 0,3.1445312 -1.99902,4.7617188 -1.97656,1.61718745 -5.8623,1.61718745 -1.57227,0 -3.48145,-0.33691406 -1.88672,-0.31445313 -2.96484,-0.71875 V -5.7949219 h 1.01074 l 1.10059,2.9423828 q 1.68457,1.5273438 4.37988,1.5273438 4.35742,0 4.35742,-3.7285156 0,-2.7402344 -3.43652,-3.9082032 l -1.99903,-0.6513672 q -2.26855,-0.7412107 -3.30175,-1.5048827 -1.03321,-0.763672 -1.59473,-1.864258 -0.56152,-1.123047 -0.56152,-2.695312 0,-2.785157 1.88671,-4.379883 1.90918,-1.617188 5.14356,-1.617188 2.31348,0 5.79492,0.696289 v 4.604493 h -1.05566 l -0.94336,-2.448243 q -1.19043,-1.055664 -3.75098,-1.055664 -1.81934,0 -2.78516,0.898438 -0.94335,0.898437 -0.94335,2.425781 0,1.280273 0.85351,2.15625 0.87598,0.875977 2.62793,1.459961 3.30176,1.123047 4.3125,1.639648 1.01074,0.516602 1.70703,1.280274 0.71875,0.7412108 1.10059,1.7070311 0.40429,0.9658203 0.40429,2.3808594 z"
         id="path13950" />
      <path
         d="M 158.12195,-1.2802734 Q 157.02136,-0.47167969 155.08972,0 q -1.93164,0.44921875 -3.95312,0.44921875 -10.26465,0 -10.26465,-11.16308575 0,-5.278321 2.60547,-8.108399 2.62793,-2.852539 7.50195,-2.852539 3.03223,0 6.62598,0.696289 v 5.884766 H 156.37 l -0.96583,-3.728516 q -1.86425,-1.055664 -4.46972,-1.055664 -6.01953,0 -6.01953,9.164063 0,4.7617186 1.81933,6.8056639 1.8418,2.0214844 5.68262,2.0214844 3.2793,0 5.70508,-0.741211 z"
         id="path13952" />
      <path
         d="m 170.32227,-22.775391 q 0,2.335938 -0.15723,3.369141 1.61719,-0.920898 3.66113,-1.594727 2.06641,-0.673828 3.48145,-0.673828 2.74023,0 4.13281,1.594727 1.39258,1.594726 1.39258,4.626953 v 13.8808594 l 2.56054,0.5615234 V 0 h -9.09668 v -1.0107422 l 2.80762,-0.5615234 V -15.183594 q 0,-3.863281 -3.72851,-3.863281 -2.11133,0 -5.05371,0.651367 v 16.8232424 l 2.85253,0.5615234 V 0 h -9.2539 v -1.0107422 l 2.67285,-0.5615234 V -30.367187 l -3.14453,-0.539063 v -1.010742 h 6.87305 z"
         id="path13954" />
      <path
         d="m 191.7061,-23.920898 1.4375,-3.211914 7.0752,4.357421 -0.96582,-7.344726 h 3.5039 l -1.05566,7.344726 7.12011,-4.267578 1.4375,3.166992 -7.45703,2.201172 7.45703,2.178711 -1.4375,3.166992 -7.12011,-4.222656 1.05566,7.299805 h -3.5039 l 0.96582,-7.367188 -7.0752,4.379883 -1.4375,-3.211914 7.36719,-2.223633 z"
         id="path13956" />
      <path
         d="m 243.36075,0.44921875 h -1.66211 l -8.69238,-19.99023475 -2.15625,-0.561523 v -1.010742 h 9.83789 v 1.010742 l -3.34668,0.606445 6.15429,14.5771487 5.88477,-14.6220707 -3.34668,-0.561523 v -1.010742 h 7.81641 v 1.010742 l -2.02149,0.47168 z"
         id="path13958" />
      <path
         d="m 265.81268,-28.008789 q 0,0.988281 -0.71875,1.707031 -0.71875,0.71875 -1.72949,0.71875 -0.98828,0 -1.70703,-0.71875 -0.71875,-0.71875 -0.71875,-1.707031 0,-1.010742 0.71875,-1.729492 0.71875,-0.71875 1.70703,-0.71875 1.01074,0 1.72949,0.71875 0.71875,0.71875 0.71875,1.729492 z m -0.22461,26.4365234 3.61621,0.5615234 V 0 h -10.93847 v -1.0107422 l 3.59375,-0.5615234 V -19.541016 l -2.98731,-0.561523 v -1.010742 h 6.71582 z"
         id="path13960" />
      <path
         d="m 279.37985,-10.624023 v 0.404296 q 0,3.0996098 0.67383,4.829102 0.69629,1.7070312 2.11133,2.6054687 1.4375,0.8984376 3.75098,0.8984376 1.21289,0 2.875,-0.2021485 1.6621,-0.2021484 2.74023,-0.4492187 v 1.2578125 q -1.07813,0.69628903 -2.94238,1.21289059 -1.8418,0.51660156 -3.77344,0.51660156 -4.91895,0 -7.20996,-2.65039065 -2.26856,-2.6503906 -2.26856,-8.5126951 0,-5.525391 2.31348,-8.243164 2.31348,-2.717774 6.60352,-2.717774 8.10839,0 8.10839,9.208985 v 1.841797 z m 4.87403,-9.253907 q -2.33594,0 -3.59375,1.886719 -1.23536,1.886719 -1.23536,5.570313 h 9.0293 q 0,-4.020508 -1.0332,-5.727539 -1.03321,-1.729493 -3.16699,-1.729493 z"
         id="path13962" />
      <path
         d="m 305.64316,-1.5722656 3.61621,0.5615234 V 0 h -10.93848 v -1.0107422 l 3.59375,-0.5615234 V -30.367187 l -3.59375,-0.539063 v -1.010742 h 7.32227 z"
         id="path13964" />
      <path
         d="m 318.69373,-19.226562 h -3.63868 v -1.100586 l 3.63868,-0.875977 v -1.482422 q 0,-4.671875 1.84179,-7.1875 1.86426,-2.515625 5.21094,-2.515625 1.72949,0 3.21191,0.426758 v 4.604492 h -1.10058 l -1.01074,-2.762695 q -0.76368,-0.47168 -1.8418,-0.47168 -1.41504,0 -1.99902,1.257813 -0.58399,1.257812 -0.58399,4.716797 v 3.503906 h 5.61524 v 1.886719 h -5.61524 v 17.4746089 l 4.55957,0.7412109 V 0 h -11.41015 v -1.0107422 l 3.12207,-0.7412109 z"
         id="path13966" />
      <path
         d="m 342.85434,-21.584961 q 3.45898,0 5.07617,1.415039 1.63965,1.415039 1.63965,4.334961 v 14.2626954 l 2.62793,0.5615234 V 0 h -5.79492 l -0.42676,-2.1113281 q -2.56055,2.56054685 -6.53613,2.56054685 -5.41309,0 -5.41309,-6.28906245 0,-2.1113282 0.80859,-3.4814454 0.83106,-1.3925779 2.62793,-2.1113279 1.79688,-0.741211 5.21094,-0.808594 l 3.16699,-0.08984 v -3.301758 q 0,-2.17871 -0.80859,-3.211914 -0.78613,-1.033203 -2.44824,-1.033203 -2.2461,0 -4.11035,1.055664 l -0.76368,2.62793 h -1.25781 v -4.604492 q 3.63867,-0.786133 6.40137,-0.786133 z m 2.9873,10.826172 -2.94238,0.08984 q -3.00976,0.112304 -4.08789,1.1679684 -1.05566,1.0556641 -1.05566,3.5263672 0,3.953125 3.21191,3.953125 1.52734,0 2.62793,-0.336914 1.12305,-0.359375 2.24609,-0.8984375 z m 3.03223,-16.05957 q 0,0.943359 -0.62891,1.617187 -0.6289,0.651367 -1.57226,0.651367 -0.94336,0 -1.59473,-0.696289 -0.65136,-0.696289 -0.65136,-1.572265 0,-0.94336 0.65136,-1.594727 0.65137,-0.651367 1.59473,-0.651367 0.94336,0 1.57226,0.651367 0.62891,0.651367 0.62891,1.594727 z m -7.99609,0 q 0,0.943359 -0.62891,1.617187 -0.62891,0.651367 -1.57226,0.651367 -0.9209,0 -1.59473,-0.673828 -0.67383,-0.673828 -0.67383,-1.594726 0,-0.94336 0.69629,-1.594727 0.69629,-0.651367 1.57227,-0.651367 0.94335,0 1.57226,0.651367 0.62891,0.651367 0.62891,1.594727 z"
         id="path13968" />
      <path
         d="m 364.50317,-1.5722656 3.61621,0.5615234 V 0 h -10.93847 v -1.0107422 l 3.59375,-0.5615234 V -30.367187 l -3.59375,-0.539063 v -1.010742 h 7.32226 z"
         id="path13970" />
      <path
         d="m 380.01196,0.44921875 q -2.15625,0 -3.23437,-1.28027344 -1.05567,-1.28027341 -1.05567,-3.59375001 V -19.226562 h -2.76269 v -1.010743 l 2.80762,-0.875976 2.26855,-4.78418 h 1.41504 v 4.78418 h 4.8291 v 1.886719 h -4.8291 v 14.3974604 q 0,1.459961 0.65137,2.2011719 0.67382,0.741211 1.75195,0.741211 1.30273,0 3.16699,-0.3593751 v 1.45996099 q -0.78613,0.5390625 -2.26855,0.87597656 -1.48242,0.359375 -2.74024,0.359375 z"
         id="path13972" />
      <path
         d="m 397.25269,-28.008789 q 0,0.988281 -0.71875,1.707031 -0.71875,0.71875 -1.7295,0.71875 -0.98828,0 -1.70703,-0.71875 -0.71875,-0.71875 -0.71875,-1.707031 0,-1.010742 0.71875,-1.729492 0.71875,-0.71875 1.70703,-0.71875 1.01075,0 1.7295,0.71875 0.71875,0.71875 0.71875,1.729492 z m -0.22461,26.4365234 3.61621,0.5615234 V 0 h -10.93848 v -1.0107422 l 3.59375,-0.5615234 V -19.541016 l -2.9873,-0.561523 v -1.010742 h 6.71582 z"
         id="path13974" />
      <path
         d="m 424.51102,-14.442383 q 0,3.638672 -2.17871,5.5029299 -2.17872,1.8642578 -6.26661,1.8642578 -1.84179,0 -3.41406,-0.3369141 l -1.41504,2.9423828 q 0.0674,0.381836 0.87598,0.71875 0.80859,0.3369141 2.02148,0.3369141 h 6.24414 q 3.41407,0 5.05372,1.4824219 1.6621,1.48242185 1.6621,4.0878906 0,2.3583984 -1.32519,4.1103516 -1.30274,1.7519531 -3.84082,2.6953125 -2.53809,0.9658203 -6.1543,0.9658203 -4.3125,0 -6.58105,-1.3251953 -2.2461,-1.3251954 -2.2461,-3.7734375 0,-1.1904297 0.8086,-2.3583985 0.80859,-1.1455078 2.96484,-2.69531248 -1.28027,-0.42675781 -2.15625,-1.45996092 -0.87598,-1.0332031 -0.87598,-2.2236328 L 411.2366,-7.90625 q -3.54883,-1.6621094 -3.54883,-6.536133 0,-3.458984 2.17872,-5.345703 2.20117,-1.886719 6.3789,-1.886719 0.83106,0 2.13379,0.179688 1.30274,0.157226 1.99902,0.381836 l 4.96387,-2.493164 0.78613,0.96582 -3.12207,3.234375 q 1.50489,1.68457 1.50489,4.963867 z m -0.9209,17.2949221 q 0,-1.2802735 -0.78613,-1.99902347 -0.78614,-0.71875001 -2.38086,-0.71875001 h -8.17579 q -0.94335,0.80859376 -1.5498,2.04394528 -0.58398,1.2578125 -0.58398,2.3359375 0,1.9316407 1.39257,2.7626953 1.39258,0.8535157 4.26758,0.8535157 3.75098,0 5.77246,-1.3925782 2.04395,-1.3925781 2.04395,-3.8857421 z m -7.47949,-11.6347657 q 2.44824,0 3.45898,-1.3925784 1.0332,-1.415039 1.0332,-4.267578 0,-2.987304 -1.05566,-4.245117 -1.05566,-1.280273 -3.3916,-1.280273 -2.3584,0 -3.45899,1.280273 -1.10058,1.280273 -1.10058,4.245117 0,2.964844 1.07812,4.3125 1.07813,1.3476564 3.43653,1.3476564 z"
         id="path13976" />
      <path
         d="m 433.66611,-23.920898 1.4375,-3.211914 7.07519,4.357421 -0.96582,-7.344726 h 3.50391 l -1.05567,7.344726 7.12012,-4.267578 1.4375,3.166992 -7.45703,2.201172 7.45703,2.178711 -1.4375,3.166992 -7.12012,-4.222656 1.05567,7.299805 h -3.50391 l 0.96582,-7.367188 -7.07519,4.379883 -1.4375,-3.211914 7.36718,-2.223633 z"
         id="path13978" />
      <path
         d="m 483.26434,-21.584961 q 3.45899,0 5.07618,1.415039 1.63964,1.415039 1.63964,4.334961 v 14.2626954 l 2.62793,0.5615234 V 0 h -5.79492 l -0.42676,-2.1113281 q -2.56054,2.56054685 -6.53613,2.56054685 -5.41309,0 -5.41309,-6.28906245 0,-2.1113282 0.8086,-3.4814454 0.83105,-1.3925779 2.62793,-2.1113279 1.79687,-0.741211 5.21094,-0.808594 l 3.16699,-0.08984 v -3.301758 q 0,-2.17871 -0.8086,-3.211914 -0.78613,-1.033203 -2.44824,-1.033203 -2.24609,0 -4.11035,1.055664 l -0.76367,2.62793 h -1.25781 v -4.604492 q 3.63867,-0.786133 6.40136,-0.786133 z m 2.98731,10.826172 -2.94238,0.08984 q -3.00977,0.112304 -4.0879,1.1679684 -1.05566,1.0556641 -1.05566,3.5263672 0,3.953125 3.21191,3.953125 1.52735,0 2.62793,-0.336914 1.12305,-0.359375 2.2461,-0.8984375 z"
         id="path13980" />
      <path
         d="m 503.96735,-19.40625 q 1.72949,-0.988281 3.68359,-1.617187 1.9541,-0.651368 3.25684,-0.651368 2.74023,0 4.13281,1.594727 1.39258,1.594726 1.39258,4.626953 v 13.8808594 l 2.56054,0.5615234 V 0 h -9.09668 v -1.0107422 l 2.80762,-0.5615234 V -15.048828 q 0,-1.864258 -0.9209,-2.919922 -0.89844,-1.078125 -2.80761,-1.078125 -2.02149,0 -4.96387,0.651367 v 16.8232424 l 2.85254,0.5615234 V 0 h -9.11914 v -1.0107422 l 2.53808,-0.5615234 V -19.541016 l -2.53808,-0.561523 v -1.010742 h 6.01953 z"
         id="path13982" />
      <path
         d="m 530.66193,0.44921875 q -2.15625,0 -3.23438,-1.28027344 -1.05566,-1.28027341 -1.05566,-3.59375001 V -19.226562 h -2.7627 v -1.010743 l 2.80762,-0.875976 2.26855,-4.78418 h 1.41504 v 4.78418 h 4.8291 v 1.886719 h -4.8291 v 14.3974604 q 0,1.459961 0.65137,2.2011719 0.67383,0.741211 1.75195,0.741211 1.30274,0 3.167,-0.3593751 v 1.45996099 q -0.78614,0.5390625 -2.26856,0.87597656 -1.48242,0.359375 -2.74023,0.359375 z"
         id="path13984" />
      <path
         d="m 547.8927,-28.008789 q 0,0.988281 -0.71875,1.707031 -0.71875,0.71875 -1.72949,0.71875 -0.98828,0 -1.70703,-0.71875 -0.71875,-0.71875 -0.71875,-1.707031 0,-1.010742 0.71875,-1.729492 0.71875,-0.71875 1.70703,-0.71875 1.01074,0 1.72949,0.71875 0.71875,0.71875 0.71875,1.729492 z m -0.22461,26.4365234 3.61621,0.5615234 V 0 h -10.93847 v -1.0107422 l 3.59375,-0.5615234 V -19.541016 l -2.98731,-0.561523 v -1.010742 h 6.71582 z"
         id="path13986" />
      <path
         d="m 570.51404,-21.674805 v 5.705078 h -0.96582 l -1.30274,-2.470703 q -1.12304,0 -2.67285,0.314453 -1.52734,0.291993 -2.65039,0.786133 v 15.7675784 l 3.61621,0.5615234 V 0 h -10.01758 v -1.0107422 l 2.67286,-0.5615234 V -19.541016 l -2.67286,-0.561523 v -1.010742 h 6.1543 l 0.20215,2.627929 q 1.34766,-1.123046 3.63867,-2.15625 2.31348,-1.033203 3.66113,-1.033203 z"
         id="path13988" />
      <path
         d="m 584.82434,-21.584961 q 3.45899,0 5.07617,1.415039 1.63965,1.415039 1.63965,4.334961 v 14.2626954 l 2.62793,0.5615234 V 0 h -5.79492 l -0.42676,-2.1113281 q -2.56055,2.56054685 -6.53613,2.56054685 -5.41309,0 -5.41309,-6.28906245 0,-2.1113282 0.8086,-3.4814454 0.83105,-1.3925779 2.62793,-2.1113279 1.79687,-0.741211 5.21093,-0.808594 l 3.167,-0.08984 v -3.301758 q 0,-2.17871 -0.8086,-3.211914 -0.78613,-1.033203 -2.44824,-1.033203 -2.24609,0 -4.11035,1.055664 l -0.76367,2.62793 h -1.25782 v -4.604492 q 3.63868,-0.786133 6.40137,-0.786133 z m 2.98731,10.826172 -2.94239,0.08984 q -3.00976,0.112304 -4.08789,1.1679684 -1.05566,1.0556641 -1.05566,3.5263672 0,3.953125 3.21191,3.953125 1.52735,0 2.62793,-0.336914 1.12305,-0.359375 2.2461,-0.8984375 z"
         id="path13990" />
    </g>
    <g
       aria-label="s"
       transform="rotate(176.44,113.91578,31.537157)"
       id="text290"
       class="cls-2"
       style="font-size:46px;font-family:TimesNewRomanPSMT, 'Times New Roman';fill:#1a1a1a">
      <path
         d="m 16.239258,-5.9296875 q 0,3.1445312 -1.999024,4.7617188 -1.976562,1.61718745 -5.8623043,1.61718745 -1.5722656,0 -3.4814453,-0.33691406 -1.8867188,-0.31445313 -2.9648438,-0.71875 V -5.7949219 h 1.0107422 l 1.1005859,2.9423828 q 1.6845704,1.5273438 4.3798829,1.5273438 4.3574214,0 4.3574214,-3.7285156 0,-2.7402344 -3.436523,-3.9082032 L 7.3447266,-9.6132813 q -2.2685547,-0.7412107 -3.3017579,-1.5048827 -1.0332031,-0.763672 -1.5947265,-1.864258 -0.5615235,-1.123047 -0.5615235,-2.695312 0,-2.785157 1.8867188,-4.379883 1.9091797,-1.617188 5.1435547,-1.617188 2.3134768,0 5.7949218,0.696289 v 4.604493 H 13.65625 l -0.943359,-2.448243 q -1.19043,-1.055664 -3.7509769,-1.055664 -1.819336,0 -2.7851563,0.898438 -0.9433594,0.898437 -0.9433594,2.425781 0,1.280273 0.8535157,2.15625 0.8759765,0.875977 2.6279297,1.459961 3.3017582,1.123047 4.3125002,1.639648 1.010742,0.516602 1.707031,1.280274 0.71875,0.7412108 1.100586,1.7070311 0.404297,0.9658203 0.404297,2.3808594 z"
         id="path13993" />
    </g>
    <g
       aria-label="s"
       transform="rotate(168.75,99.997121,39.044348)"
       id="text294"
       class="cls-2"
       style="font-size:46px;font-family:TimesNewRomanPSMT, 'Times New Roman';fill:#1a1a1a">
      <path
         d="m 16.239258,-5.9296875 q 0,3.1445312 -1.999024,4.7617188 -1.976562,1.61718745 -5.8623043,1.61718745 -1.5722656,0 -3.4814453,-0.33691406 -1.8867188,-0.31445313 -2.9648438,-0.71875 V -5.7949219 h 1.0107422 l 1.1005859,2.9423828 q 1.6845704,1.5273438 4.3798829,1.5273438 4.3574214,0 4.3574214,-3.7285156 0,-2.7402344 -3.436523,-3.9082032 L 7.3447266,-9.6132813 q -2.2685547,-0.7412107 -3.3017579,-1.5048827 -1.0332031,-0.763672 -1.5947265,-1.864258 -0.5615235,-1.123047 -0.5615235,-2.695312 0,-2.785157 1.8867188,-4.379883 1.9091797,-1.617188 5.1435547,-1.617188 2.3134768,0 5.7949218,0.696289 v 4.604493 H 13.65625 l -0.943359,-2.448243 q -1.19043,-1.055664 -3.7509769,-1.055664 -1.819336,0 -2.7851563,0.898438 -0.9433594,0.898437 -0.9433594,2.425781 0,1.280273 0.8535157,2.15625 0.8759765,0.875977 2.6279297,1.459961 3.3017582,1.123047 4.3125002,1.639648 1.010742,0.516602 1.707031,1.280274 0.71875,0.7412108 1.100586,1.7070311 0.404297,0.9658203 0.404297,2.3808594 z"
         id="path13996" />
    </g>
    <g
       aria-label="i"
       transform="rotate(161.91,86.280302,46.002422)"
       id="text298"
       class="cls-2"
       style="font-size:46px;font-family:TimesNewRomanPSMT, 'Times New Roman';fill:#1a1a1a">
      <path
         d="m 8.5126953,-28.008789 q 0,0.988281 -0.71875,1.707031 -0.71875,0.71875 -1.7294922,0.71875 -0.9882812,0 -1.7070312,-0.71875 -0.71875,-0.71875 -0.71875,-1.707031 0,-1.010742 0.71875,-1.729492 0.71875,-0.71875 1.7070312,-0.71875 1.0107422,0 1.7294922,0.71875 0.71875,0.71875 0.71875,1.729492 z M 8.2880859,-1.5722656 11.904297,-1.0107422 V 0 H 0.96582031 V -1.0107422 L 4.5595703,-1.5722656 V -19.541016 l -2.9873047,-0.561523 v -1.010742 h 6.7158203 z"
         id="path13999" />
    </g>
    <g
       aria-label="s"
       transform="rotate(155.08,74.890057,52.669392)"
       id="text302"
       class="cls-2"
       style="font-size:46px;font-family:TimesNewRomanPSMT, 'Times New Roman';fill:#1a1a1a">
      <path
         d="m 16.239258,-5.9296875 q 0,3.1445312 -1.999024,4.7617188 -1.976562,1.61718745 -5.8623043,1.61718745 -1.5722656,0 -3.4814453,-0.33691406 -1.8867188,-0.31445313 -2.9648438,-0.71875 V -5.7949219 h 1.0107422 l 1.1005859,2.9423828 q 1.6845704,1.5273438 4.3798829,1.5273438 4.3574214,0 4.3574214,-3.7285156 0,-2.7402344 -3.436523,-3.9082032 L 7.3447266,-9.6132813 q -2.2685547,-0.7412107 -3.3017579,-1.5048827 -1.0332031,-0.763672 -1.5947265,-1.864258 -0.5615235,-1.123047 -0.5615235,-2.695312 0,-2.785157 1.8867188,-4.379883 1.9091797,-1.617188 5.1435547,-1.617188 2.3134768,0 5.7949218,0.696289 v 4.604493 H 13.65625 l -0.943359,-2.448243 q -1.19043,-1.055664 -3.7509769,-1.055664 -1.819336,0 -2.7851563,0.898438 -0.9433594,0.898437 -0.9433594,2.425781 0,1.280273 0.8535157,2.15625 0.8759765,0.875977 2.6279297,1.459961 3.3017582,1.123047 4.3125002,1.639648 1.010742,0.516602 1.707031,1.280274 0.71875,0.7412108 1.100586,1.7070311 0.404297,0.9658203 0.404297,2.3808594 z"
         id="path14002" />
    </g>
    <g
       aria-label="t"
       transform="rotate(148.28,60.621742,60.067734)"
       id="text306"
       class="cls-2"
       style="font-size:46px;font-family:TimesNewRomanPSMT, 'Times New Roman';fill:#1a1a1a">
      <path
         d="m 7.5019531,0.44921875 q -2.15625,0 -3.234375,-1.28027344 Q 3.2119141,-2.1113281 3.2119141,-4.4248047 V -19.226562 H 0.44921875 v -1.010743 l 2.80761715,-0.875976 2.2685547,-4.78418 h 1.4150391 v 4.78418 h 4.8291013 v 1.886719 H 6.9404297 v 14.3974604 q 0,1.459961 0.6513672,2.2011719 0.6738281,0.741211 1.7519531,0.741211 1.302734,0 3.166992,-0.3593751 v 1.45996099 q -0.786133,0.5390625 -2.268554,0.87597656 -1.4824224,0.359375 -2.7402349,0.359375 z"
         id="path14005" />
    </g>
    <g
       aria-label="i"
       transform="rotate(142.44,49.066294,66.385559)"
       id="text310"
       class="cls-2"
       style="font-size:46px;font-family:TimesNewRomanPSMT, 'Times New Roman';fill:#1a1a1a">
      <path
         d="m 8.5126953,-28.008789 q 0,0.988281 -0.71875,1.707031 -0.71875,0.71875 -1.7294922,0.71875 -0.9882812,0 -1.7070312,-0.71875 -0.71875,-0.71875 -0.71875,-1.707031 0,-1.010742 0.71875,-1.729492 0.71875,-0.71875 1.7070312,-0.71875 1.0107422,0 1.7294922,0.71875 0.71875,0.71875 0.71875,1.729492 z M 8.2880859,-1.5722656 11.904297,-1.0107422 V 0 H 0.96582031 V -1.0107422 L 4.5595703,-1.5722656 V -19.541016 l -2.9873047,-0.561523 v -1.010742 h 6.7158203 z"
         id="path14008" />
    </g>
    <g
       aria-label="s"
       transform="rotate(135.7,36.468385,73.439769)"
       id="text314"
       class="cls-2"
       style="font-size:46px;font-family:TimesNewRomanPSMT, 'Times New Roman';fill:#1a1a1a">
      <path
         d="m 16.239258,-5.9296875 q 0,3.1445312 -1.999024,4.7617188 -1.976562,1.61718745 -5.8623043,1.61718745 -1.5722656,0 -3.4814453,-0.33691406 -1.8867188,-0.31445313 -2.9648438,-0.71875 V -5.7949219 h 1.0107422 l 1.1005859,2.9423828 q 1.6845704,1.5273438 4.3798829,1.5273438 4.3574214,0 4.3574214,-3.7285156 0,-2.7402344 -3.436523,-3.9082032 L 7.3447266,-9.6132813 q -2.2685547,-0.7412107 -3.3017579,-1.5048827 -1.0332031,-0.763672 -1.5947265,-1.864258 -0.5615235,-1.123047 -0.5615235,-2.695312 0,-2.785157 1.8867188,-4.379883 1.9091797,-1.617188 5.1435547,-1.617188 2.3134768,0 5.7949218,0.696289 v 4.604493 H 13.65625 l -0.943359,-2.448243 q -1.19043,-1.055664 -3.7509769,-1.055664 -1.819336,0 -2.7851563,0.898438 -0.9433594,0.898437 -0.9433594,2.425781 0,1.280273 0.8535157,2.15625 0.8759765,0.875977 2.6279297,1.459961 3.3017582,1.123047 4.3125002,1.639648 1.010742,0.516602 1.707031,1.280274 0.71875,0.7412108 1.100586,1.7070311 0.404297,0.9658203 0.404297,2.3808594 z"
         id="path14011" />
    </g>
    <g
       aria-label="c"
       transform="rotate(127.6,19.484432,82.643054)"
       id="text318"
       class="cls-2"
       style="font-size:46px;font-family:TimesNewRomanPSMT, 'Times New Roman';fill:#1a1a1a">
      <path
         d="M 19.001953,-1.2802734 Q 17.901367,-0.47167969 15.969727,0 q -1.931641,0.44921875 -3.953125,0.44921875 -10.2646489,0 -10.2646489,-11.16308575 0,-5.278321 2.6054688,-8.108399 2.6279297,-2.852539 7.5019531,-2.852539 3.032227,0 6.625977,0.696289 v 5.884766 H 17.25 l -0.96582,-3.728516 q -1.864258,-1.055664 -4.469727,-1.055664 -6.0195311,0 -6.0195311,9.164063 0,4.7617186 1.8193359,6.8056639 1.8417969,2.0214844 5.6826172,2.0214844 3.279297,0 5.705078,-0.741211 z"
         id="path14014" />
    </g>
    <g
       aria-label="h"
       transform="rotate(118.53,-1.0219006,93.618319)"
       id="text322"
       class="cls-2"
       style="font-size:46px;font-family:TimesNewRomanPSMT, 'Times New Roman';fill:#1a1a1a">
      <path
         d="m 7.3222656,-22.775391 q 0,2.335938 -0.1572265,3.369141 1.6171875,-0.920898 3.6611329,-1.594727 2.066406,-0.673828 3.481445,-0.673828 2.740235,0 4.132813,1.594727 1.392578,1.594726 1.392578,4.626953 v 13.8808594 l 2.560547,0.5615234 V 0 h -9.09668 v -1.0107422 l 2.807617,-0.5615234 V -15.183594 q 0,-3.863281 -3.728515,-3.863281 -2.111329,0 -5.0537114,0.651367 v 16.8232424 l 2.8525394,0.5615234 V 0 H 0.92089844 V -1.0107422 L 3.59375,-1.5722656 V -30.367187 L 0.44921875,-30.90625 v -1.010742 H 7.3222656 Z"
         id="path14017" />
    </g>
    <g
       aria-label="*"
       transform="rotate(108.93,-25.625584,106.74192)"
       id="text326"
       class="cls-2"
       style="font-size:46px;font-family:TimesNewRomanPSMT, 'Times New Roman';fill:#1a1a1a">
      <path
         d="m 2.2460938,-23.920898 1.4375,-3.211914 7.0751952,4.357421 -0.9658202,-7.344726 h 3.5039062 l -1.055664,7.344726 7.120117,-4.267578 1.4375,3.166992 -7.457031,2.201172 7.457031,2.178711 -1.4375,3.166992 -7.120117,-4.222656 1.055664,7.299805 H 9.7929688 l 0.9658202,-7.367188 -7.0751952,4.379883 -1.4375,-3.211914 7.3671875,-2.223633 z"
         id="path14020" />
    </g>
    <text
       class="cls-2"
       transform="rotate(101.4,-49.918923,120.52355)"
       id="text330"><tspan
         x="0"
         y="0"
         id="tspan328" /></text>
    <g
       aria-label="a"
       transform="rotate(94.4,-69.850708,130.61454)"
       id="text334"
       class="cls-2"
       style="font-size:46px;font-family:TimesNewRomanPSMT, 'Times New Roman';fill:#1a1a1a">
      <path
         d="m 10.444336,-21.584961 q 3.458984,0 5.076172,1.415039 1.639648,1.415039 1.639648,4.334961 v 14.2626954 l 2.62793,0.5615234 V 0 h -5.794922 l -0.426758,-2.1113281 q -2.560547,2.56054685 -6.5361326,2.56054685 -5.4130859,0 -5.4130859,-6.28906245 0,-2.1113282 0.8085938,-3.4814454 0.8310546,-1.3925779 2.6279296,-2.1113279 1.796875,-0.741211 5.2109371,-0.808594 l 3.166993,-0.08984 v -3.301758 q 0,-2.17871 -0.808594,-3.211914 -0.786133,-1.033203 -2.448242,-1.033203 -2.2460941,0 -4.1103519,1.055664 l -0.7636719,2.62793 H 4.0429687 v -4.604492 q 3.6386719,-0.786133 6.4013673,-0.786133 z m 2.987305,10.826172 -2.942383,0.08984 q -3.0097658,0.112304 -4.0878908,1.1679684 -1.0556641,1.0556641 -1.0556641,3.5263672 0,3.953125 3.2119141,3.953125 1.5273438,0 2.6279298,-0.336914 1.123047,-0.359375 2.246094,-0.8984375 z"
         id="path14023" />
    </g>
    <g
       aria-label="ntikapitalistisch*dynamisch"
       transform="rotate(90,-90.935,144.645)"
       id="text392"
       class="cls-2"
       style="font-size:46px;font-family:TimesNewRomanPSMT, 'Times New Roman';fill:#1a1a1a">
      <path
         d="m 7.2773437,-19.40625 q 1.7294922,-0.988281 3.6835943,-1.617187 1.954101,-0.651368 3.256835,-0.651368 2.740235,0 4.132813,1.594727 1.392578,1.594726 1.392578,4.626953 v 13.8808594 l 2.560547,0.5615234 V 0 h -9.09668 v -1.0107422 l 2.807617,-0.5615234 V -15.048828 q 0,-1.864258 -0.920898,-2.919922 -0.898437,-1.078125 -2.807617,-1.078125 -2.021485,0 -4.9638674,0.651367 v 16.8232424 l 2.8525394,0.5615234 V 0 H 1.0556641 V -1.0107422 L 3.59375,-1.5722656 V -19.541016 l -2.5380859,-0.561523 v -1.010742 h 6.0195312 z"
         id="path14026" />
      <path
         d="m 33.971952,0.44921875 q -2.15625,0 -3.234375,-1.28027344 Q 29.681913,-2.1113281 29.681913,-4.4248047 V -19.226562 h -2.762695 v -1.010743 l 2.807617,-0.875976 2.268555,-4.78418 h 1.415039 v 4.78418 h 4.829102 v 1.886719 h -4.829102 v 14.3974604 q 0,1.459961 0.651367,2.2011719 0.673828,0.741211 1.751953,0.741211 1.302735,0 3.166993,-0.3593751 v 1.45996099 q -0.786133,0.5390625 -2.268555,0.87597656 -1.482422,0.359375 -2.740235,0.359375 z"
         id="path14028" />
      <path
         d="m 51.212696,-28.008789 q 0,0.988281 -0.71875,1.707031 -0.71875,0.71875 -1.729492,0.71875 -0.988281,0 -1.707031,-0.71875 -0.71875,-0.71875 -0.71875,-1.707031 0,-1.010742 0.71875,-1.729492 0.71875,-0.71875 1.707031,-0.71875 1.010742,0 1.729492,0.71875 0.71875,0.71875 0.71875,1.729492 z m -0.224609,26.4365234 3.616211,0.5615234 V 0 H 43.665821 v -1.0107422 l 3.59375,-0.5615234 V -19.541016 l -2.987305,-0.561523 v -1.010742 h 6.715821 z"
         id="path14030" />
      <path
         d="m 66.666561,-10.174805 8.647461,-9.321289 -2.201172,-0.606445 v -1.010742 h 7.457031 v 1.010742 l -2.627929,0.516602 -6.019531,6.154296 7.726562,11.9042973 2.291016,0.5166015 V 0 h -8.647461 v -1.0107422 l 1.93164,-0.5615234 -5.794922,-9.0966794 -2.762695,3.0322263 v 6.0644531 l 2.246094,0.5615234 V 0 h -8.647461 v -1.0107422 l 2.672852,-0.5615234 V -30.367187 l -3.122071,-0.539063 v -1.010742 h 6.850586 z"
         id="path14032" />
      <path
         d="m 95.844337,-21.584961 q 3.458985,0 5.076173,1.415039 1.63965,1.415039 1.63965,4.334961 v 14.2626954 l 2.62793,0.5615234 V 0 h -5.794924 l -0.426758,-2.1113281 q -2.560547,2.56054685 -6.536133,2.56054685 -5.413086,0 -5.413086,-6.28906245 0,-2.1113282 0.808594,-3.4814454 0.831054,-1.3925779 2.627929,-2.1113279 1.796875,-0.741211 5.210938,-0.808594 l 3.166992,-0.08984 v -3.301758 q 0,-2.17871 -0.808594,-3.211914 -0.786132,-1.033203 -2.448242,-1.033203 -2.246094,0 -4.110351,1.055664 l -0.763672,2.62793 H 89.44297 v -4.604492 q 3.638672,-0.786133 6.401367,-0.786133 z m 2.987305,10.826172 -2.942383,0.08984 q -3.009765,0.112304 -4.08789,1.1679684 -1.055664,1.0556641 -1.055664,3.5263672 0,3.953125 3.211914,3.953125 1.527343,0 2.627929,-0.336914 1.123047,-0.359375 2.246094,-0.8984375 z"
         id="path14034" />
      <path
         d="m 112.66406,-19.541016 -2.40332,-0.561523 v -1.010742 h 5.92969 l 0.0449,1.235351 q 0.94336,-0.808593 2.51563,-1.302734 1.59472,-0.494141 3.23437,-0.494141 4.04297,0 6.24414,2.807618 2.22363,2.807617 2.22363,8.063476 0,5.3681641 -2.42578,8.3105469 -2.40332,2.94238285 -6.96289,2.94238285 -2.53808,0 -4.8291,-0.49414062 0.13477,1.61718747 0.13477,2.53808597 v 5.7050781 l 3.68359,0.5390625 v 1.0556641 h -10.0625 V 8.7373047 l 2.67285,-0.5390625 z m 13.7461,8.737305 q 0,-4.3125 -1.41504,-6.401367 -1.39258,-2.111328 -4.24512,-2.111328 -2.62793,0 -4.37988,0.741211 v 16.8681638 q 1.99902,0.3818359 4.37988,0.3818359 5.66016,0 5.66016,-9.4785157 z"
         id="path14036" />
      <path
         d="m 144.2227,-28.008789 q 0,0.988281 -0.71875,1.707031 -0.71875,0.71875 -1.72949,0.71875 -0.98828,0 -1.70703,-0.71875 -0.71875,-0.71875 -0.71875,-1.707031 0,-1.010742 0.71875,-1.729492 0.71875,-0.71875 1.70703,-0.71875 1.01074,0 1.72949,0.71875 0.71875,0.71875 0.71875,1.729492 z m -0.22461,26.4365234 3.61621,0.5615234 V 0 h -10.93847 v -1.0107422 l 3.59375,-0.5615234 V -19.541016 l -2.98731,-0.561523 v -1.010742 h 6.71582 z"
         id="path14038" />
      <path
         d="m 159.43195,0.44921875 q -2.15625,0 -3.23438,-1.28027344 -1.05566,-1.28027341 -1.05566,-3.59375001 V -19.226562 h -2.7627 v -1.010743 l 2.80762,-0.875976 2.26855,-4.78418 h 1.41504 v 4.78418 h 4.8291 v 1.886719 h -4.8291 v 14.3974604 q 0,1.459961 0.65137,2.2011719 0.67383,0.741211 1.75195,0.741211 1.30274,0 3.16699,-0.3593751 v 1.45996099 q -0.78613,0.5390625 -2.26855,0.87597656 -1.48242,0.359375 -2.74023,0.359375 z"
         id="path14040" />
      <path
         d="m 178.60434,-21.584961 q 3.45898,0 5.07617,1.415039 1.63965,1.415039 1.63965,4.334961 v 14.2626954 l 2.62793,0.5615234 V 0 h -5.79492 l -0.42676,-2.1113281 q -2.56055,2.56054685 -6.53613,2.56054685 -5.41309,0 -5.41309,-6.28906245 0,-2.1113282 0.80859,-3.4814454 0.83106,-1.3925779 2.62793,-2.1113279 1.79688,-0.741211 5.21094,-0.808594 l 3.16699,-0.08984 v -3.301758 q 0,-2.17871 -0.80859,-3.211914 -0.78613,-1.033203 -2.44824,-1.033203 -2.2461,0 -4.11035,1.055664 l -0.76368,2.62793 h -1.25781 v -4.604492 q 3.63867,-0.786133 6.40137,-0.786133 z m 2.9873,10.826172 -2.94238,0.08984 q -3.00976,0.112304 -4.08789,1.1679684 -1.05566,1.0556641 -1.05566,3.5263672 0,3.953125 3.21191,3.953125 1.52734,0 2.62793,-0.336914 1.12305,-0.359375 2.24609,-0.8984375 z"
         id="path14042" />
      <path
         d="m 200.29317,-1.5722656 3.61621,0.5615234 V 0 H 192.9709 v -1.0107422 l 3.59375,-0.5615234 V -30.367187 l -3.59375,-0.539063 v -1.010742 h 7.32227 z"
         id="path14044" />
      <path
         d="m 216.7827,-28.008789 q 0,0.988281 -0.71875,1.707031 -0.71875,0.71875 -1.72949,0.71875 -0.98828,0 -1.70703,-0.71875 -0.71875,-0.71875 -0.71875,-1.707031 0,-1.010742 0.71875,-1.729492 0.71875,-0.71875 1.70703,-0.71875 1.01074,0 1.72949,0.71875 0.71875,0.71875 0.71875,1.729492 z m -0.22461,26.4365234 3.61621,0.5615234 V 0 h -10.93848 v -1.0107422 l 3.59375,-0.5615234 V -19.541016 l -2.9873,-0.561523 v -1.010742 h 6.71582 z"
         id="path14046" />
      <path
         d="m 240.72926,-5.9296875 q 0,3.1445312 -1.99902,4.7617188 -1.97656,1.61718745 -5.8623,1.61718745 -1.57227,0 -3.48145,-0.33691406 -1.88672,-0.31445313 -2.96484,-0.71875 V -5.7949219 h 1.01074 l 1.10058,2.9423828 q 1.68457,1.5273438 4.37989,1.5273438 4.35742,0 4.35742,-3.7285156 0,-2.7402344 -3.43652,-3.9082032 l -1.99903,-0.6513672 q -2.26855,-0.7412107 -3.30176,-1.5048827 -1.0332,-0.763672 -1.59472,-1.864258 -0.56153,-1.123047 -0.56153,-2.695312 0,-2.785157 1.88672,-4.379883 1.90918,-1.617188 5.14356,-1.617188 2.31347,0 5.79492,0.696289 v 4.604493 h -1.05566 l -0.94336,-2.448243 q -1.19043,-1.055664 -3.75098,-1.055664 -1.81934,0 -2.78516,0.898438 -0.94336,0.898437 -0.94336,2.425781 0,1.280273 0.85352,2.15625 0.87598,0.875977 2.62793,1.459961 3.30176,1.123047 4.3125,1.639648 1.01074,0.516602 1.70703,1.280274 0.71875,0.7412108 1.10059,1.7070311 0.40429,0.9658203 0.40429,2.3808594 z"
         id="path14048" />
      <path
         d="m 253.34195,0.44921875 q -2.15625,0 -3.23438,-1.28027344 -1.05566,-1.28027341 -1.05566,-3.59375001 V -19.226562 h -2.76269 v -1.010743 l 2.80761,-0.875976 2.26856,-4.78418 h 1.41504 v 4.78418 h 4.8291 v 1.886719 h -4.8291 v 14.3974604 q 0,1.459961 0.65136,2.2011719 0.67383,0.741211 1.75196,0.741211 1.30273,0 3.16699,-0.3593751 v 1.45996099 q -0.78613,0.5390625 -2.26856,0.87597656 -1.48242,0.359375 -2.74023,0.359375 z"
         id="path14050" />
      <path
         d="m 270.60269,-28.008789 q 0,0.988281 -0.71875,1.707031 -0.71875,0.71875 -1.72949,0.71875 -0.98828,0 -1.70703,-0.71875 -0.71875,-0.71875 -0.71875,-1.707031 0,-1.010742 0.71875,-1.729492 0.71875,-0.71875 1.70703,-0.71875 1.01074,0 1.72949,0.71875 0.71875,0.71875 0.71875,1.729492 z m -0.22461,26.4365234 3.61621,0.5615234 V 0 h -10.93847 v -1.0107422 l 3.59375,-0.5615234 V -19.541016 l -2.98731,-0.561523 v -1.010742 h 6.71582 z"
         id="path14052" />
      <path
         d="m 294.55927,-5.9296875 q 0,3.1445312 -1.99903,4.7617188 -1.97656,1.61718745 -5.8623,1.61718745 -1.57227,0 -3.48145,-0.33691406 -1.88672,-0.31445313 -2.96484,-0.71875 V -5.7949219 h 1.01074 l 1.10059,2.9423828 q 1.68457,1.5273438 4.37988,1.5273438 4.35742,0 4.35742,-3.7285156 0,-2.7402344 -3.43652,-3.9082032 l -1.99903,-0.6513672 q -2.26855,-0.7412107 -3.30175,-1.5048827 -1.03321,-0.763672 -1.59473,-1.864258 -0.56152,-1.123047 -0.56152,-2.695312 0,-2.785157 1.88671,-4.379883 1.90918,-1.617188 5.14356,-1.617188 2.31348,0 5.79492,0.696289 v 4.604493 h -1.05566 l -0.94336,-2.448243 q -1.19043,-1.055664 -3.75098,-1.055664 -1.81933,0 -2.78515,0.898438 -0.94336,0.898437 -0.94336,2.425781 0,1.280273 0.85351,2.15625 0.87598,0.875977 2.62793,1.459961 3.30176,1.123047 4.3125,1.639648 1.01074,0.516602 1.70703,1.280274 0.71875,0.7412108 1.10059,1.7070311 0.4043,0.9658203 0.4043,2.3808594 z"
         id="path14054" />
      <path
         d="M 318.67197,-1.2802734 Q 317.57138,-0.47167969 315.63974,0 q -1.93164,0.44921875 -3.95313,0.44921875 -10.26464,0 -10.26464,-11.16308575 0,-5.278321 2.60547,-8.108399 2.62792,-2.852539 7.50195,-2.852539 3.03222,0 6.62597,0.696289 v 5.884766 h -1.23535 l -0.96582,-3.728516 q -1.86425,-1.055664 -4.46972,-1.055664 -6.01953,0 -6.01953,9.164063 0,4.7617186 1.81933,6.8056639 1.8418,2.0214844 5.68262,2.0214844 3.2793,0 5.70508,-0.741211 z"
         id="path14056" />
      <path
         d="m 330.87225,-22.775391 q 0,2.335938 -0.15722,3.369141 1.61718,-0.920898 3.66113,-1.594727 2.06641,-0.673828 3.48144,-0.673828 2.74024,0 4.13282,1.594727 1.39258,1.594726 1.39258,4.626953 v 13.8808594 l 2.56054,0.5615234 V 0 h -9.09668 v -1.0107422 l 2.80762,-0.5615234 V -15.183594 q 0,-3.863281 -3.72852,-3.863281 -2.11132,0 -5.05371,0.651367 v 16.8232424 l 2.85254,0.5615234 V 0 h -9.2539 v -1.0107422 l 2.67285,-0.5615234 V -30.367187 l -3.14453,-0.539063 v -1.010742 h 6.87304 z"
         id="path14058" />
      <path
         d="m 352.24609,-23.920898 1.4375,-3.211914 7.0752,4.357421 -0.96582,-7.344726 h 3.5039 l -1.05566,7.344726 7.12012,-4.267578 1.4375,3.166992 -7.45703,2.201172 7.45703,2.178711 -1.4375,3.166992 -7.12012,-4.222656 1.05566,7.299805 h -3.5039 l 0.96582,-7.367188 -7.0752,4.379883 -1.4375,-3.211914 7.36719,-2.223633 z"
         id="path14060" />
      <path
         d="m 407.62927,-1.5722656 q -2.53808,2.02148435 -5.92969,2.02148435 -8.64746,0 -8.64746,-10.80371075 0,-5.547852 2.44825,-8.422852 2.44824,-2.897461 7.20996,-2.897461 2.42578,0 4.91894,0.516602 -0.13476,-0.741211 -0.13476,-3.728516 v -5.480468 l -3.54883,-0.539063 v -1.010742 h 7.27734 v 30.3447264 l 2.60547,0.5615234 V 0 h -5.92969 z m -10.53418,-8.7822264 q 0,4.2675779 1.4375,6.3789061 1.4375,2.0888672 4.40235,2.0888672 2.53808,0 4.55957,-0.8759766 V -19.451172 q -1.99903,-0.381836 -4.55957,-0.381836 -5.83985,0 -5.83985,9.478516 z"
         id="path14062" />
      <path
         d="m 422.30972,9.9277344 q -1.75195,0 -3.45898,-0.4042969 V 4.9638672 h 1.05566 l 0.74121,2.15625 q 0.69629,0.5166015 1.93164,0.5166015 1.16797,0 2.15625,-0.6738281 0.98829,-0.6738281 1.79688,-1.9990234 0.83105,-1.3251953 2.06641,-4.73925782 l -8.04102,-19.76562538 -2.15625,-0.561523 v -1.010742 h 9.79297 v 1.010742 l -3.32422,0.606445 5.70508,14.7568362 5.52539,-14.8017582 -3.30176,-0.561523 v -1.010742 h 7.86133 v 1.010742 l -2.20117,0.47168 -8.24317,20.9560543 q -1.45996,3.7060547 -2.53808,5.3232422 -1.07813,1.6171875 -2.38086,2.4482422 -1.30274,0.8310547 -2.98731,0.8310547 z"
         id="path14064" />
      <path
         d="m 451.58734,-19.40625 q 1.72949,-0.988281 3.6836,-1.617187 1.9541,-0.651368 3.25683,-0.651368 2.74024,0 4.13281,1.594727 1.39258,1.594726 1.39258,4.626953 v 13.8808594 l 2.56055,0.5615234 V 0 h -9.09668 v -1.0107422 l 2.80762,-0.5615234 V -15.048828 q 0,-1.864258 -0.9209,-2.919922 -0.89844,-1.078125 -2.80762,-1.078125 -2.02148,0 -4.96387,0.651367 v 16.8232424 l 2.85254,0.5615234 V 0 h -9.11914 v -1.0107422 l 2.53809,-0.5615234 V -19.541016 l -2.53809,-0.561523 v -1.010742 h 6.01953 z"
         id="path14066" />
      <path
         d="m 481.20435,-21.584961 q 3.45898,0 5.07617,1.415039 1.63965,1.415039 1.63965,4.334961 v 14.2626954 l 2.62793,0.5615234 V 0 h -5.79493 l -0.42675,-2.1113281 q -2.56055,2.56054685 -6.53614,2.56054685 -5.41308,0 -5.41308,-6.28906245 0,-2.1113282 0.80859,-3.4814454 0.83106,-1.3925779 2.62793,-2.1113279 1.79688,-0.741211 5.21094,-0.808594 l 3.16699,-0.08984 v -3.301758 q 0,-2.17871 -0.80859,-3.211914 -0.78614,-1.033203 -2.44825,-1.033203 -2.24609,0 -4.11035,1.055664 l -0.76367,2.62793 h -1.25781 v -4.604492 q 3.63867,-0.786133 6.40137,-0.786133 z m 2.9873,10.826172 -2.94238,0.08984 q -3.00977,0.112304 -4.08789,1.1679684 -1.05567,1.0556641 -1.05567,3.5263672 0,3.953125 3.21192,3.953125 1.52734,0 2.62793,-0.336914 1.12304,-0.359375 2.24609,-0.8984375 z"
         id="path14068" />
      <path
         d="m 501.95227,-19.40625 q 1.68457,-0.96582 3.57129,-1.617187 1.88672,-0.651368 3.32422,-0.651368 1.5498,0 2.85254,0.583985 1.32519,0.583984 1.97656,1.864258 1.72949,-0.965821 4.04297,-1.707032 2.33594,-0.741211 3.86328,-0.741211 5.39062,0 5.39062,6.22168 v 13.8808594 l 2.71778,0.5615234 V 0 h -9.59082 v -1.0107422 l 3.14453,-0.5615234 V -15.048828 q 0,-3.863281 -3.59375,-3.863281 -0.58399,0 -1.37012,0.08984 -0.76367,0.08984 -1.5498,0.202149 -0.76367,0.112305 -1.48242,0.269531 -0.69629,0.134766 -1.16797,0.224609 0.38183,1.212891 0.38183,2.672852 V -1.5722656 L 517.63,-1.0107422 V 0 h -10.01757 v -1.0107422 l 3.12207,-0.5615234 V -15.048828 q 0,-1.864258 -0.96582,-2.852539 -0.94336,-1.010742 -2.85254,-1.010742 -1.97656,0 -4.91895,0.651367 v 16.6884764 l 3.16699,0.5615234 V 0 h -9.56835 v -1.0107422 l 2.67285,-0.5615234 V -19.541016 l -2.67285,-0.561523 v -1.010742 h 6.17675 z"
         id="path14070" />
      <path
         d="m 542.36267,-28.008789 q 0,0.988281 -0.71875,1.707031 -0.71875,0.71875 -1.72949,0.71875 -0.98828,0 -1.70703,-0.71875 -0.71875,-0.71875 -0.71875,-1.707031 0,-1.010742 0.71875,-1.729492 0.71875,-0.71875 1.70703,-0.71875 1.01074,0 1.72949,0.71875 0.71875,0.71875 0.71875,1.729492 z m -0.22461,26.4365234 3.61621,0.5615234 V 0 H 534.8158 v -1.0107422 l 3.59375,-0.5615234 V -19.541016 l -2.98731,-0.561523 v -1.010742 h 6.71582 z"
         id="path14072" />
      <path
         d="m 566.32928,-5.9296875 q 0,3.1445312 -1.99902,4.7617188 -1.97656,1.61718745 -5.8623,1.61718745 -1.57227,0 -3.48145,-0.33691406 -1.88672,-0.31445313 -2.96484,-0.71875 V -5.7949219 h 1.01074 l 1.10059,2.9423828 q 1.68457,1.5273438 4.37988,1.5273438 4.35742,0 4.35742,-3.7285156 0,-2.7402344 -3.43652,-3.9082032 l -1.99903,-0.6513672 q -2.26855,-0.7412107 -3.30175,-1.5048827 -1.03321,-0.763672 -1.59473,-1.864258 -0.56152,-1.123047 -0.56152,-2.695312 0,-2.785157 1.88671,-4.379883 1.90918,-1.617188 5.14356,-1.617188 2.31348,0 5.79492,0.696289 v 4.604493 h -1.05566 l -0.94336,-2.448243 q -1.19043,-1.055664 -3.75098,-1.055664 -1.81934,0 -2.78516,0.898438 -0.94335,0.898437 -0.94335,2.425781 0,1.280273 0.85351,2.15625 0.87598,0.875977 2.62793,1.459961 3.30176,1.123047 4.3125,1.639648 1.01074,0.516602 1.70703,1.280274 0.71875,0.7412108 1.10059,1.7070311 0.40429,0.9658203 0.40429,2.3808594 z"
         id="path14074" />
      <path
         d="M 590.44196,-1.2802734 Q 589.34137,-0.47167969 587.40973,0 q -1.93164,0.44921875 -3.95313,0.44921875 -10.26464,0 -10.26464,-11.16308575 0,-5.278321 2.60546,-8.108399 2.62793,-2.852539 7.50196,-2.852539 3.03222,0 6.62597,0.696289 v 5.884766 H 588.69 l -0.96582,-3.728516 q -1.86426,-1.055664 -4.46972,-1.055664 -6.01954,0 -6.01954,9.164063 0,4.7617186 1.81934,6.8056639 1.8418,2.0214844 5.68262,2.0214844 3.27929,0 5.70508,-0.741211 z"
         id="path14076" />
      <path
         d="m 602.68225,-22.775391 q 0,2.335938 -0.15723,3.369141 1.61719,-0.920898 3.66114,-1.594727 2.0664,-0.673828 3.48144,-0.673828 2.74024,0 4.13282,1.594727 1.39257,1.594726 1.39257,4.626953 v 13.8808594 l 2.56055,0.5615234 V 0 h -9.09668 v -1.0107422 l 2.80762,-0.5615234 V -15.183594 q 0,-3.863281 -3.72852,-3.863281 -2.11133,0 -5.05371,0.651367 v 16.8232424 l 2.85254,0.5615234 V 0 h -9.25391 v -1.0107422 l 2.67286,-0.5615234 V -30.367187 l -3.14454,-0.539063 v -1.010742 h 6.87305 z"
         id="path14078" />
    </g>
    <g
       aria-label="*"
       transform="rotate(81.77,-469.72981,461.13839)"
       id="text396"
       class="cls-2"
       style="font-size:46px;font-family:TimesNewRomanPSMT, 'Times New Roman';fill:#1a1a1a">
      <path
         d="m 2.2460938,-23.920898 1.4375,-3.211914 7.0751952,4.357421 -0.9658202,-7.344726 h 3.5039062 l -1.055664,7.344726 7.120117,-4.267578 1.4375,3.166992 -7.457031,2.201172 7.457031,2.178711 -1.4375,3.166992 -7.120117,-4.222656 1.055664,7.299805 H 9.7929688 l 0.9658202,-7.367188 -7.0751952,4.379883 -1.4375,-3.211914 7.3671875,-2.223633 z"
         id="path14081" />
    </g>
    <path
       class="cls-1"
       d="m154.98,923.74c2.64.88,4.1-2.34,2.64-3.81l-26.08-26.08c-4.69-4.98-6.15-9.67-6.15-13.77,0-8.79,8.5-14.94,17.87-14.94,10.84,0,14.65,6.74,16.7,16.99l5.27,32.52c.29,1.17,1.46,1.76,2.34,1.76s1.46-.29,2.05-1.46l24.91-40.73c4.4-7.03,8.79-9.96,13.77-10.25,6.74-.29,15.24,5.57,15.24,13.48,0,4.1-2.93,7.91-8.2,12.31l-41.61,31.64c-.59.59-.88,1.17-.88,1.76,0,1.17.59,2.05,2.05,2.05l48.34,8.79c10.25,2.05,14.36,8.79,14.36,15.82,0,10.25-7.62,17.29-17.58,17.29-5.86,0-10.55-4.98-18.75-10.84l-29.01-22.85c-1.46-1.17-3.81-1.17-4.1,1.76l-.88,45.12c-.88,10.84-4.69,20.51-15.24,20.51s-16.99-9.96-12.6-20.8l20.51-47.17c.88-2.34-.88-3.81-2.93-3.22l-40.43,13.77c-11.43,3.52-18.46-2.05-18.46-12.89,0-13.19,9.67-18.75,25.49-14.36l31.35,7.62Z"
       id="path398" />
  </g>
</svg>
